<svg width="200" height="110" viewBox="0 0 200 110" fill="none" xmlns="http://www.w3.org/2000/svg">
<rect width="200" height="110" fill="white"/>
<path d="M31.5172 63.3046C30.9625 64.1451 30.2148 64.7693 29.2743 65.2015C28.3336 65.6337 27.3448 65.8498 26.3077 65.8498C25.1742 65.8498 24.1371 65.6337 23.2448 65.2255C22.3524 64.8173 21.5806 64.2411 20.9536 63.5448C20.3265 62.8244 19.8441 62.0081 19.5065 61.0717C19.1688 60.1352 19 59.1268 19 58.0703C19 57.0139 19.1688 56.0054 19.5306 55.069C19.8682 54.1326 20.3747 53.2922 21.0018 52.5959C21.6289 51.8996 22.4006 51.3473 23.293 50.9391C24.1853 50.531 25.1983 50.3389 26.2836 50.3389C27.393 50.3389 28.3578 50.555 29.226 51.0112C30.0942 51.4674 30.7696 52.0436 31.3001 52.74H31.3725V50.699H35.0384V65.4896H31.5895V63.3287H31.5172V63.3046ZM22.6659 58.0703C22.6659 58.6946 22.7624 59.2949 22.9553 59.8952C23.1483 60.4714 23.4377 60.9757 23.7995 61.4078C24.1854 61.84 24.6436 62.2002 25.1983 62.4403C25.753 62.7044 26.3801 62.8244 27.0795 62.8244C27.7548 62.8244 28.3578 62.7044 28.9125 62.4403C29.4671 62.1762 29.9254 61.84 30.3354 61.4078C30.7213 60.9757 31.0348 60.4714 31.2519 59.8952C31.4689 59.3189 31.5655 58.6946 31.5655 58.0463C31.5655 57.422 31.4689 56.8218 31.2519 56.2215C31.0348 55.6453 30.7213 55.141 30.3354 54.7088C29.9495 54.2767 29.4671 53.9165 28.9125 53.6764C28.3578 53.4122 27.7548 53.2922 27.0795 53.2922C26.356 53.2922 25.7289 53.4122 25.1983 53.6764C24.6436 53.9405 24.1854 54.2767 23.7995 54.7088C23.4136 55.141 23.1483 55.6453 22.9553 56.2215C22.7624 56.8458 22.6659 57.4461 22.6659 58.0703Z" fill="#28004B"/>
<path d="M48.6669 54.9011C48.3775 54.4929 47.9434 54.1568 47.3887 53.8686C46.8099 53.6045 46.231 53.4604 45.6522 53.4604C44.9769 53.4604 44.398 53.6045 43.8675 53.8686C43.361 54.1327 42.9268 54.4929 42.5892 54.9491C42.2515 55.4053 42.0104 55.9095 41.8415 56.4618C41.6727 57.014 41.6004 57.5903 41.6004 58.1426C41.6004 58.7188 41.6968 59.271 41.8657 59.8232C42.0345 60.3755 42.2998 60.8797 42.6374 61.3359C42.9751 61.7921 43.4092 62.1523 43.9398 62.4164C44.4704 62.6806 45.0733 62.8246 45.7727 62.8246C46.3516 62.8246 46.9063 62.7045 47.4851 62.4885C48.0639 62.2723 48.5222 61.9362 48.8598 61.504L51.151 63.8331C50.5481 64.4814 49.7522 64.9855 48.8116 65.3457C47.8711 65.7059 46.8339 65.874 45.7246 65.874C44.6392 65.874 43.6262 65.7059 42.6374 65.3457C41.6727 65.0096 40.8286 64.4814 40.105 63.8331C39.3815 63.1607 38.8027 62.3444 38.3927 61.3839C37.9826 60.4235 37.7656 59.3431 37.7656 58.1185C37.7656 56.9419 37.9826 55.8615 38.3927 54.9251C38.8027 53.9646 39.3815 53.1483 40.081 52.476C40.8045 51.8037 41.6244 51.2754 42.565 50.9153C43.5057 50.5551 44.5187 50.363 45.6039 50.363C46.6892 50.363 47.7263 50.5551 48.7393 50.9633C49.7522 51.3715 50.5481 51.9237 51.151 52.6441L48.6669 54.9011Z" fill="#28004B"/>
<path d="M62.6317 54.9011C62.3423 54.4929 61.9082 54.1568 61.3535 53.8686C60.7746 53.6045 60.1958 53.4604 59.617 53.4604C58.9417 53.4604 58.3629 53.6045 57.8323 53.8686C57.3258 54.1327 56.8917 54.4929 56.554 54.9491C56.2164 55.4053 55.9752 55.9095 55.8064 56.4618C55.6375 57.014 55.5652 57.5903 55.5652 58.1426C55.5652 58.7188 55.6617 59.271 55.8305 59.8232C55.9993 60.3755 56.2646 60.8797 56.6023 61.3359C56.9399 61.7921 57.3741 62.1523 57.9046 62.4164C58.4352 62.6806 59.0382 62.8246 59.7376 62.8246C60.3164 62.8246 60.8711 62.7045 61.45 62.4885C62.0288 62.2723 62.487 61.9362 62.8247 61.504L65.1159 63.8331C64.5129 64.4814 63.717 64.9855 62.7764 65.3457C61.8359 65.7059 60.7988 65.874 59.6894 65.874C58.6041 65.874 57.5911 65.7059 56.6023 65.3457C55.6375 65.0096 54.7934 64.4814 54.0698 63.8331C53.3463 63.1607 52.7675 62.3444 52.3575 61.3839C51.9475 60.4235 51.7305 59.3431 51.7305 58.1185C51.7305 56.9419 51.9475 55.8615 52.3575 54.9251C52.7675 53.9646 53.3463 53.1483 54.0458 52.476C54.7693 51.8037 55.5893 51.2754 56.5299 50.9153C57.4705 50.5551 58.4834 50.363 59.5687 50.363C60.6541 50.363 61.6911 50.5551 62.7041 50.9633C63.717 51.3715 64.5129 51.9237 65.1159 52.6441L62.6317 54.9011Z" fill="#28004B"/>
<path d="M65.668 58.0943C65.668 56.9418 65.8851 55.8854 66.295 54.9489C66.7051 54.0125 67.2839 53.1961 67.9833 52.5238C68.7069 51.8515 69.551 51.3233 70.5157 50.9631C71.5045 50.603 72.5416 50.4109 73.651 50.4109C74.7605 50.4109 75.7975 50.603 76.7864 50.9631C77.7752 51.3233 78.6194 51.8515 79.3187 52.5238C80.0423 53.1961 80.597 54.0125 81.007 54.9489C81.417 55.8854 81.6341 56.9418 81.6341 58.0943C81.6341 59.2469 81.417 60.3033 81.007 61.2637C80.597 62.2242 80.0181 63.0406 79.3187 63.7128C78.5952 64.3851 77.7511 64.9374 76.7864 65.3216C75.8217 65.7057 74.7605 65.8978 73.651 65.8978C72.5416 65.8978 71.5045 65.7057 70.5157 65.3216C69.5269 64.9374 68.6828 64.4092 67.9833 63.7128C67.2598 63.0406 66.7051 62.2242 66.295 61.2637C65.8851 60.3274 65.668 59.2708 65.668 58.0943ZM69.4063 58.0943C69.4063 58.6705 69.5027 59.2228 69.6716 59.7991C69.8404 60.3753 70.1057 60.8796 70.4433 61.3118C70.781 61.768 71.2392 62.1281 71.7698 62.4163C72.3004 62.7044 72.9275 62.8484 73.6752 62.8484C74.3987 62.8484 75.0499 62.7044 75.5805 62.4163C76.1111 62.1281 76.5452 61.768 76.907 61.3118C77.2446 60.8555 77.5099 60.3513 77.6787 59.7991C77.8476 59.2228 77.944 58.6705 77.944 58.0943C77.944 57.5181 77.8476 56.9658 77.6787 56.4135C77.5099 55.8613 77.2446 55.3571 76.907 54.9009C76.5693 54.4447 76.1111 54.0846 75.5805 53.8204C75.0499 53.5563 74.4228 53.4122 73.6752 53.4122C72.9516 53.4122 72.3004 53.5563 71.7698 53.8204C71.2392 54.0846 70.8051 54.4447 70.4433 54.9009C70.1057 55.3571 69.8404 55.8613 69.6716 56.4135C69.5027 56.9658 69.4063 57.5421 69.4063 58.0943Z" fill="#28004B"/>
<path d="M97.7652 65.4897H94.2681V63.1366H94.1958C93.8581 63.8569 93.3034 64.5052 92.5075 65.0815C91.7116 65.6338 90.7469 65.9219 89.6374 65.9219C88.6728 65.9219 87.8527 65.7538 87.1775 65.4176C86.5021 65.0815 85.9233 64.6493 85.4892 64.0971C85.0551 63.5448 84.7174 62.9206 84.5245 62.2002C84.3315 61.4799 84.2109 60.7596 84.2109 60.0153V50.8431H87.8769V58.9588C87.8769 59.391 87.901 59.8232 87.9733 60.3034C88.0457 60.7596 88.1663 61.1918 88.3834 61.5759C88.5763 61.9601 88.8657 62.2723 89.2275 62.5123C89.5893 62.7525 90.0475 62.8725 90.6504 62.8725C91.2293 62.8725 91.7358 62.7525 92.1699 62.5123C92.604 62.2723 92.9658 61.9841 93.2311 61.6239C93.4963 61.2638 93.7134 60.8316 93.8581 60.3513C94.0028 59.8712 94.0751 59.391 94.0751 58.9107V50.8431H97.7411V65.4897H97.7652Z" fill="#28004B"/>
<path d="M101.34 50.8431H104.837V53.1961H104.909C105.247 52.4758 105.802 51.8275 106.598 51.2513C107.393 50.699 108.358 50.4109 109.467 50.4109C110.433 50.4109 111.253 50.579 111.928 50.9151C112.603 51.2513 113.182 51.6835 113.616 52.2357C114.05 52.7879 114.387 53.4122 114.58 54.1325C114.774 54.8529 114.894 55.5732 114.894 56.3175V65.4656H111.228V57.374C111.228 56.9418 111.204 56.5096 111.132 56.0294C111.06 55.5732 110.939 55.141 110.722 54.7568C110.529 54.3727 110.239 54.0605 109.877 53.8204C109.515 53.5803 109.034 53.4603 108.455 53.4603C107.852 53.4603 107.345 53.5803 106.935 53.8204C106.501 54.0605 106.163 54.3487 105.874 54.7088C105.609 55.069 105.392 55.5011 105.247 55.9814C105.103 56.4616 105.03 56.9418 105.03 57.422V65.4656H101.364V50.8431H101.34Z" fill="#28004B"/>
<path d="M116.293 53.7724V50.8431H118.873V46.6172H122.491V50.8431H126.157V53.7724H122.467V60.5674C122.467 61.2157 122.587 61.7679 122.829 62.1762C123.07 62.6083 123.601 62.8245 124.396 62.8245C124.638 62.8245 124.903 62.8004 125.192 62.7524C125.481 62.7043 125.723 62.6324 125.964 62.5123L126.085 65.3936C125.747 65.5136 125.361 65.6097 124.927 65.6817C124.469 65.7537 124.059 65.7777 123.649 65.7777C122.66 65.7777 121.864 65.6337 121.261 65.3696C120.658 65.1054 120.151 64.7213 119.814 64.241C119.452 63.7608 119.211 63.2086 119.09 62.5843C118.946 61.96 118.898 61.2878 118.898 60.5914V53.7724H116.293Z" fill="#28004B"/>
<path d="M129.968 64.7212C129.317 64.145 129.004 63.3526 129.004 62.3442C129.004 61.5278 129.269 60.8555 129.775 60.3272C130.306 59.7991 130.909 59.3908 131.632 59.0787C132.356 58.7666 133.297 58.4545 134.455 58.0943C135.636 57.7581 136.528 57.4219 137.107 57.1338C137.686 56.8457 137.975 56.4616 137.975 55.9573V54.2766C137.975 53.2201 137.71 52.4998 137.203 52.1156C136.673 51.7314 135.95 51.5393 135.009 51.5393C133.514 51.5393 132.452 51.8755 131.849 52.5238C132.284 52.6198 132.621 52.8119 132.91 53.1001C133.2 53.3882 133.345 53.7484 133.345 54.1805C133.345 54.6368 133.176 54.9969 132.838 55.261C132.5 55.5251 132.067 55.6452 131.536 55.6452C130.933 55.6452 130.499 55.4771 130.185 55.1649C129.896 54.8528 129.727 54.4687 129.727 54.0125C129.727 53.5803 129.848 53.2201 130.089 52.932C130.33 52.6439 130.691 52.3557 131.198 52.0676C131.705 51.7554 132.356 51.5153 133.152 51.2992C133.947 51.1071 134.792 51.0111 135.733 51.0111C137.397 51.0111 138.651 51.3473 139.495 52.0196C140.026 52.4277 140.387 52.932 140.556 53.5322C140.724 54.1325 140.821 54.9008 140.821 55.8613V63.4487C140.821 63.9049 140.894 64.241 141.038 64.4331C141.183 64.6252 141.448 64.7212 141.81 64.7212C142.075 64.7212 142.317 64.6732 142.533 64.5771C142.751 64.4811 142.992 64.3371 143.257 64.145L143.619 64.6012C143.064 64.9614 142.582 65.2255 142.196 65.3695C141.81 65.5136 141.303 65.6096 140.701 65.6096C139.687 65.6096 138.964 65.3935 138.554 64.9614C138.144 64.5292 137.951 63.9289 137.951 63.1845C137.301 64.0969 136.577 64.7212 135.756 65.0814C134.936 65.4416 133.996 65.6096 132.935 65.6096C131.609 65.5856 130.62 65.2975 129.968 64.7212ZM137.975 62.4162V57.0859C137.782 57.3499 137.517 57.5421 137.18 57.7101C136.842 57.8781 136.312 58.0943 135.612 58.3584C134.792 58.6465 134.141 58.9346 133.658 59.1988C133.152 59.4629 132.718 59.8231 132.356 60.2793C131.994 60.7355 131.801 61.3117 131.801 62.032C131.801 62.8484 132.042 63.4727 132.5 63.8809C132.959 64.289 133.586 64.5052 134.358 64.5052C135.781 64.5052 136.987 63.8088 137.975 62.4162Z" fill="#28004B"/>
<path d="M157.486 52.8838C158.595 54.1564 159.174 55.9812 159.174 58.3823C159.174 59.9669 158.86 61.3115 158.209 62.416C157.558 63.5206 156.714 64.3609 155.629 64.9132C154.543 65.4654 153.362 65.7535 152.035 65.7535C151.239 65.7535 150.491 65.6095 149.744 65.3454C149.021 65.0813 148.369 64.673 147.814 64.1689L145.548 65.8016L144.993 65.6095C145.138 65.1533 145.209 64.6251 145.209 64.0248V47.3133C145.209 46.4729 145.017 45.8727 144.655 45.4885C144.293 45.1043 143.666 44.9122 142.773 44.9122V44.36C143.449 44.408 144.124 44.432 144.751 44.432C146.102 44.432 147.212 44.312 148.08 44.0479V53.8922C148.538 52.9558 149.213 52.2355 150.106 51.7313C150.998 51.2271 151.987 50.9629 153.072 50.9629C154.905 50.987 156.376 51.6112 157.486 52.8838ZM155.002 63.4965C155.725 62.392 156.062 60.6873 156.062 58.3823C156.062 56.1732 155.749 54.5165 155.098 53.412C154.447 52.3315 153.482 51.7793 152.156 51.7793C151.263 51.7793 150.443 52.0674 149.696 52.6677C148.948 53.2679 148.417 54.0843 148.103 55.1648V63.8087C148.586 64.2409 149.165 64.577 149.792 64.7931C150.419 65.0092 151.095 65.1292 151.77 65.1292C153.217 65.1533 154.278 64.601 155.002 63.4965Z" fill="#28004B"/>
<path d="M164.864 62.8724C164.864 63.6168 165.033 64.121 165.419 64.4091C165.78 64.6973 166.408 64.8413 167.3 64.8413V65.3935C165.347 65.3215 164.044 65.2735 163.441 65.2735C162.814 65.2735 161.536 65.3215 159.582 65.3935V64.8173C160.475 64.8173 161.102 64.6732 161.464 64.3851C161.826 64.097 162.018 63.5927 162.018 62.8484V47.2895C162.018 46.4491 161.826 45.8488 161.464 45.4647C161.102 45.0805 160.475 44.8884 159.582 44.8884V44.3121C160.233 44.3602 160.908 44.3842 161.56 44.3842C162.911 44.3842 164.02 44.2641 164.888 44V62.8724H164.864Z" fill="#28004B"/>
<path d="M181 62.1279C180.614 63.1364 179.89 63.9767 178.853 64.697C177.792 65.4173 176.514 65.7775 175.043 65.7775C173.524 65.7775 172.221 65.4894 171.111 64.8891C170.003 64.2889 169.158 63.4725 168.579 62.416C168 61.3596 167.711 60.111 167.711 58.7184C167.711 57.1337 168 55.7651 168.604 54.6126C169.206 53.46 170.051 52.5476 171.136 51.9234C172.221 51.2991 173.499 50.9869 174.946 50.9869C176.876 50.9869 178.347 51.4912 179.384 52.4756C180.421 53.46 180.927 54.9727 180.927 56.9896H170.919C170.846 57.4939 170.822 58.0701 170.822 58.7424C170.822 59.943 171.04 60.9754 171.498 61.8878C171.956 62.7762 172.558 63.4725 173.33 63.9527C174.078 64.4329 174.874 64.673 175.718 64.673C176.731 64.673 177.648 64.457 178.443 64.0487C179.239 63.6406 179.89 62.9203 180.421 61.9598L181 62.1279ZM172.173 52.7397C171.45 53.5801 170.991 54.8046 170.822 56.4374H177.792C177.84 55.0207 177.6 53.8442 177.069 52.8838C176.538 51.9474 175.766 51.4671 174.754 51.4671C173.765 51.4912 172.897 51.9234 172.173 52.7397Z" fill="#28004B"/>
</svg>
