<svg width="200" height="110" viewBox="0 0 200 110" fill="none" xmlns="http://www.w3.org/2000/svg">
<rect width="200" height="110" fill="white"/>
<path d="M37.9089 48.2335C34.4934 48.2335 32.8168 51.2257 32.8168 55.2212V65.234H28V44.1046H32.7324V49.5864H32.8146C33.825 46.216 35.8392 43.4926 38.9438 43.4926C41.129 43.4926 42.0506 44.2511 42.0506 44.2511L39.8765 48.6028C39.8765 48.6028 39.1836 48.2335 37.9067 48.2335H37.9089ZM96.1389 51.1361V65.234H91.4465V52.8519C91.4465 49.2979 90.325 47.416 87.4603 47.416C84.5955 47.416 83.0588 49.7962 83.0588 54.3622V65.2318H78.4085V52.8497C78.4085 49.4334 77.3004 47.4138 74.4645 47.4138C71.2267 47.4138 69.9808 50.2334 69.9808 54.36V65.2296H65.2484V44.1046H69.9808V48.8892H70.023C70.7603 45.5778 72.7723 43.5342 76.1678 43.5342C79.5633 43.5342 81.7285 45.333 82.5613 48.522C83.3541 45.4532 85.4638 43.5342 88.7061 43.5342C93.2297 43.5342 96.1389 46.3537 96.1389 51.1361ZM51.5198 43.4926C47.1672 43.4926 44.3158 45.5254 43.0166 49.1952L47.0251 50.6443C47.7557 48.4302 49.2791 47.169 51.6042 47.169C54.2203 47.169 55.757 48.3143 55.757 50.0716C55.757 51.829 54.5334 52.2442 51.7708 52.6879C48.6995 53.1797 41.3911 53.3415 41.3911 59.4724C41.3911 63.0635 44.4113 65.7651 48.9482 65.7651C52.3593 65.7651 54.6822 64.3793 55.757 61.8002H55.7992V65.234H60.4916V52.2377C60.4916 46.5526 57.6113 43.4926 51.5243 43.4926H51.5198ZM55.8791 55.2868C55.8791 59.7172 53.674 62.563 50.1496 62.563C47.658 62.563 46.1634 61.1729 46.1634 59.1686C46.1634 57.2889 47.7002 55.984 50.6471 55.4463C53.594 54.9086 55.1818 54.2158 55.8791 52.5852V55.2846V55.2868ZM112.83 43.532C109.241 43.532 106.87 45.4926 105.855 48.4389V44.1046H100.871V73.3648H105.812V60.8975H105.855C106.954 64.0886 109.243 65.8438 112.83 65.8438C118.517 65.8438 122.588 61.186 122.588 54.6048C122.588 48.0236 118.52 43.5298 112.83 43.5298V43.532ZM111.604 61.9204C107.665 61.9204 105.479 59.079 105.479 54.666C105.479 50.2531 107.924 47.4116 111.604 47.4116C115.284 47.4116 117.729 50.3908 117.729 54.666C117.729 58.9413 115.284 61.9204 111.604 61.9204ZM171 65.0963V65.2252L152.304 65.2318V65.0963C155 63.5684 156.861 62.0122 158.535 60.386H166.212L170.998 65.0963H171ZM166.368 40.6643L161.628 36H161.491C161.491 36 161.571 44.6926 153.614 52.5983C145.828 60.3358 136.67 60.3511 136.67 60.3511V60.4866L141.497 65.2318C141.497 65.2318 150.52 65.3214 158.491 57.4769C166.432 49.6607 166.365 40.6643 166.365 40.6643H166.368Z" fill="#292827"/>
</svg>
