<svg width="200" height="110" viewBox="0 0 200 110" fill="none" xmlns="http://www.w3.org/2000/svg">
<rect width="200" height="110" fill="white"/>
<path d="M16 45.0212C18.756 51.6325 21.4854 58.1812 24.2528 64.8172C25.917 60.8292 27.5395 56.9378 29.1999 52.9555C30.8622 56.9416 32.4828 60.8273 34.147 64.8191C36.9181 58.1737 39.6457 51.6287 42.3998 45.023C41.3023 45.023 40.2769 45.023 39.2495 45.023C39.1207 45.023 39.0562 45.0837 39.0145 45.1936C38.9766 45.2922 38.933 45.3889 38.8932 45.4874C37.3787 49.2139 35.8662 52.9403 34.3517 56.6668C34.2967 56.8014 34.2626 56.9473 34.1224 57.116C32.4771 53.0654 30.8527 49.0698 29.1999 45.0022C27.5452 49.0755 25.9208 53.0711 24.2964 57.0648C24.1504 57.0117 24.1485 56.9094 24.1163 56.8279C23.4264 55.1334 22.7383 53.4388 22.0484 51.7443C21.1822 49.6157 20.3121 47.489 19.4554 45.3566C19.3568 45.1121 19.2431 45.0041 18.9645 45.0155C18.3295 45.0401 17.6926 45.023 17.0558 45.023C16.7279 45.023 16.398 45.023 16 45.023V45.0212Z" fill="white"/>
<path d="M114.931 54.8828C114.931 56.7461 114.931 58.6093 114.931 60.4725C114.931 61.805 114.931 63.1394 114.931 64.4719C114.931 64.7941 114.936 64.7998 115.251 64.8017C115.751 64.8055 116.252 64.8017 116.752 64.8017C117.161 64.8017 117.571 64.7903 117.98 64.8055C118.204 64.8131 118.282 64.7297 118.255 64.5155C118.244 64.4264 118.255 64.3335 118.255 64.2426C118.255 62.1974 118.255 60.1522 118.255 58.107C118.255 57.5952 118.196 57.6578 118.723 57.6559C120.738 57.654 122.755 57.6559 124.77 57.6521C125.088 57.6521 125.407 57.635 125.723 57.6085C129.361 57.3014 132.086 53.8422 131.313 50.0419C130.716 47.1039 128.075 44.9848 125.088 45.0114C121.875 45.0379 118.663 45.017 115.45 45.0189C114.834 45.0189 114.932 44.9753 114.931 45.5629C114.927 48.6677 114.931 51.7743 114.931 54.879V54.8828Z" fill="white"/>
<path d="M96.7744 57.0929C96.255 55.8135 95.7565 54.5814 95.2542 53.3494C94.1776 50.7034 93.1029 48.0554 92.0263 45.4094C91.869 45.0227 91.8671 45.0227 91.488 45.0208C90.6085 45.0208 89.7309 45.0208 88.8514 45.0208C88.7661 45.0208 88.6657 44.9905 88.5898 45.1156C91.3098 51.6264 94.0355 58.1525 96.763 64.6785C96.7668 64.688 96.7877 64.6918 96.8009 64.6937C96.8616 64.7012 96.8009 64.6444 96.8559 64.7012C99.5834 58.1582 102.309 51.6208 105.059 45.0208C103.966 45.0208 102.94 45.0208 101.915 45.0208C101.79 45.0208 101.72 45.0739 101.678 45.1857C101.636 45.2994 101.587 45.4094 101.541 45.5212C100.027 49.2458 98.5144 52.9722 96.9999 56.6968C96.9507 56.8181 96.926 56.9526 96.7744 57.0929Z" fill="white"/>
<path d="M154.486 64.8018C154.298 64.1156 146.451 45.3715 146.254 45.1213C145.691 46.215 138.147 64.434 138.113 64.8018C139.114 64.8018 140.111 64.798 141.11 64.8055C141.298 64.8055 141.383 64.7222 141.438 64.5667C141.474 64.4663 141.514 64.3696 141.554 64.271C143.068 60.5446 144.581 56.8181 146.097 53.0936C146.144 52.978 146.15 52.8282 146.313 52.7524C146.377 52.9059 146.436 53.0424 146.491 53.1789C147.272 55.0971 148.051 57.0172 148.83 58.9354C149.583 60.7834 150.335 62.6315 151.086 64.4814C151.154 64.652 151.198 64.8093 151.446 64.8055C152.445 64.7942 153.442 64.7999 154.484 64.7999L154.486 64.8018Z" fill="white"/>
<path d="M57.1886 52.7562C57.2189 52.7581 57.2492 52.7619 57.2795 52.7637C57.5127 53.3343 57.7477 53.9048 57.979 54.4753C59.3209 57.781 60.661 61.0867 62.0068 64.3904C62.1944 64.8529 62.094 64.7998 62.6247 64.8017C63.4284 64.8036 64.2301 64.8055 65.0338 64.8017C65.1646 64.8017 65.303 64.8453 65.4584 64.7278C62.7308 58.1847 60.0014 51.636 57.234 45C54.4648 51.6454 51.7354 58.1942 49.0078 64.7373C49.1519 64.8321 49.2751 64.7998 49.3926 64.7998C50.2266 64.8036 51.0587 64.8017 51.8927 64.7998C52.2926 64.7998 52.2945 64.7998 52.4443 64.4302C53.4128 62.0495 54.3795 59.6689 55.3462 57.2882C55.9603 55.7756 56.5763 54.2649 57.1905 52.7543L57.1886 52.7562Z" fill="white"/>
<path d="M168.329 64.7771C168.702 64.8321 169.08 64.798 169.457 64.8018C170.094 64.8075 170.731 64.7999 171.366 64.8056C171.536 64.8056 171.62 64.7525 171.606 64.5724C171.599 64.4663 171.606 64.3601 171.606 64.254C171.606 62.0268 171.612 59.7997 171.601 57.5744C171.599 57.2105 171.684 56.9053 171.872 56.5945C174.099 52.8832 176.315 49.1643 178.532 45.4474C178.604 45.3261 178.665 45.1972 178.756 45.0228C177.772 45.0228 176.849 45.0417 175.93 45.0133C175.573 45.0019 175.397 45.1232 175.227 45.4265C173.559 48.3948 171.874 51.3536 170.192 54.3143C170.122 54.4394 170.073 54.5815 169.95 54.6801C169.794 54.5531 169.735 54.3768 169.648 54.2214C167.975 51.274 166.299 48.3265 164.635 45.3734C164.493 45.1232 164.349 45.0019 164.038 45.0133C163.297 45.0417 162.554 45.0228 161.811 45.0228C161.602 45.0228 161.396 45.0228 161.172 45.0228C161.2 45.2427 161.318 45.3678 161.399 45.5042C163.625 49.2345 165.85 52.9647 168.081 56.6912C168.234 56.9489 168.301 57.2029 168.299 57.5024C168.289 59.7599 168.293 62.0174 168.295 64.2729C168.295 64.4359 168.263 64.6046 168.331 64.7771H168.329Z" fill="white"/>
<path d="M75.3807 64.7506C75.4641 64.8207 75.557 64.8093 75.648 64.8093C76.5407 64.8093 77.4354 64.8093 78.3281 64.8093C78.3888 64.8093 78.4494 64.8093 78.5101 64.8074C78.6143 64.8018 78.6788 64.7544 78.6807 64.6425C78.6807 64.5212 78.6826 64.3999 78.6826 64.2786C78.6826 62.114 78.6826 59.9494 78.6826 57.7848C78.6826 53.6679 78.6826 49.551 78.6826 45.4341C78.6826 45.0323 78.6788 45.0285 78.2978 45.0266C77.4505 45.0247 76.6014 45.0247 75.7541 45.0266C75.3618 45.0266 75.3618 45.0304 75.358 45.4189C75.358 45.4644 75.358 45.5099 75.358 45.5554C75.358 51.7914 75.358 58.0274 75.358 64.2653C75.358 64.4303 75.3333 64.5971 75.3807 64.7525V64.7506Z" fill="white"/>
<path d="M16 45.0212C16.398 45.0212 16.7279 45.0212 17.0558 45.0212C17.6926 45.0212 18.6423 45.0382 19.2772 45.0136C20.134 47.1459 21.1822 49.6157 22.0465 51.7443C22.7364 53.4388 23.4245 55.1353 24.1144 56.8279C24.1466 56.9075 24.1485 57.0117 24.2945 57.0648C25.9208 53.0711 27.5452 49.0755 29.1999 45.0022C30.8527 49.0698 32.4771 53.0654 34.1224 57.1141C34.2626 56.9454 34.2967 56.7995 34.3517 56.6649C35.8662 52.9384 37.3787 49.212 38.8932 45.4855C38.933 45.387 39.0373 45.133 39.0752 45.0344C40.1025 45.0382 41.3023 45.0249 42.3998 45.0249C39.6457 51.6306 36.9181 58.1755 34.147 64.821C32.4828 60.8292 30.8622 56.9435 29.1999 52.9574C27.5395 56.9397 25.9151 60.8311 24.2528 64.8191C21.4854 58.1812 18.756 51.6344 16 45.0212Z" fill="#0C2442"/>
<path d="M114.932 54.8829C114.932 51.7782 114.932 48.6715 114.932 45.5668C114.932 44.9773 114.833 45.0228 115.451 45.0228C118.664 45.0228 121.876 45.0437 125.089 45.0152C128.076 44.9906 130.715 47.1078 131.314 50.0457C132.087 53.8461 129.36 57.3053 125.724 57.6124C125.408 57.6389 125.089 57.6541 124.771 57.656C122.756 57.6597 120.739 57.656 118.724 57.6598C118.197 57.6598 118.256 57.5991 118.256 58.1109C118.254 60.1561 118.256 62.2012 118.256 64.2464C118.256 64.3374 118.247 64.4284 118.256 64.5194C118.283 64.7336 118.205 64.817 117.981 64.8094C117.572 64.7942 117.162 64.8056 116.753 64.8056C116.253 64.8056 115.752 64.8094 115.252 64.8056C114.937 64.8037 114.932 64.798 114.932 64.4758C114.93 63.1433 114.932 61.8089 114.932 60.4764C114.932 58.6132 114.932 56.7499 114.932 54.8867V54.8829ZM121.861 54.3958C122.936 54.3958 124.013 54.411 125.087 54.392C126.795 54.3617 128.111 53.0424 128.135 51.3593C128.16 49.6913 126.841 48.3038 125.146 48.283C122.951 48.2545 120.754 48.2792 118.559 48.2716C118.319 48.2716 118.252 48.3455 118.252 48.5825C118.262 50.4135 118.256 52.2445 118.258 54.0774C118.258 54.3882 118.266 54.3939 118.592 54.3958C119.682 54.3977 120.771 54.3958 121.863 54.3958H121.861Z" fill="#0C2442"/>
<path d="M96.7744 57.093C96.9241 56.9527 96.9507 56.8182 96.9999 56.6969C98.5144 52.9723 100.029 49.2459 101.541 45.5213C101.587 45.4095 101.638 45.2995 101.678 45.1858C101.72 45.0721 101.788 45.019 101.915 45.0209C102.94 45.0247 103.966 45.0209 105.059 45.0209C102.309 51.6208 99.5834 58.1563 96.8559 64.7013C96.8009 64.6445 96.8597 64.7013 96.8009 64.6937C96.7877 64.6937 96.7668 64.6881 96.763 64.6786C94.0355 58.1526 91.3098 51.6265 88.5898 45.1157C88.6657 44.9925 88.7661 45.0209 88.8514 45.0209C89.7309 45.0209 90.6085 45.019 91.488 45.0209C91.869 45.0209 91.8709 45.0209 92.0263 45.4095C93.1029 48.0555 94.1795 50.7034 95.2542 53.3495C95.7546 54.5815 96.255 55.8136 96.7744 57.093Z" fill="#0C2442"/>
<path d="M154.484 64.8017C153.442 64.8017 152.445 64.7941 151.446 64.8074C151.198 64.8112 151.156 64.6538 151.086 64.4833C150.335 62.6333 149.583 60.7852 148.83 58.9372C148.049 57.019 147.27 55.0989 146.491 53.1807C146.436 53.0442 146.377 52.9078 146.313 52.7542C146.148 52.8301 146.142 52.9817 146.097 53.0954C144.581 56.82 143.066 60.5464 141.554 64.2729C141.514 64.3714 141.474 64.4681 141.438 64.5686C141.383 64.724 141.298 64.8093 141.11 64.8074C140.111 64.7979 139.114 64.8036 138.113 64.8036C138.147 64.4359 145.691 46.2187 146.254 45.1232C146.451 45.3734 154.298 64.1174 154.486 64.8036L154.484 64.8017Z" fill="#0C2442"/>
<path d="M57.1876 52.7562C56.5735 54.2668 55.9575 55.7794 55.3434 57.2901C54.3748 59.6708 53.2489 62.4267 52.2822 64.8074C51.4482 64.8074 49.8106 64.8093 48.9766 64.8074C51.7041 58.2643 54.4639 51.6454 57.2331 45C59.9986 51.636 62.7299 58.1847 65.4575 64.7278C65.302 64.8434 65.1618 64.7998 65.0329 64.8017C64.2292 64.8055 63.4274 64.8055 62.6238 64.8017C62.0931 64.8017 62.1954 64.8529 62.0059 64.3904C60.6601 61.0867 59.32 57.781 57.978 54.4753C57.7468 53.9048 57.5118 53.3343 57.2786 52.7637C57.2483 52.7619 57.218 52.7581 57.1876 52.7562Z" fill="#0C2442"/>
<path d="M168.331 64.7771C168.263 64.6046 168.295 64.436 168.295 64.2729C168.293 62.0155 168.289 59.758 168.299 57.5024C168.299 57.2029 168.234 56.9489 168.081 56.6912C165.848 52.9647 163.623 49.2345 161.399 45.5042C161.318 45.3659 161.2 45.2427 161.172 45.0228C161.396 45.0228 161.604 45.0228 161.811 45.0228C162.554 45.0228 163.297 45.0417 164.038 45.0133C164.349 45.0019 164.493 45.1214 164.635 45.3734C166.299 48.3266 167.975 51.274 169.648 54.2214C169.735 54.3768 169.794 54.5531 169.95 54.6801C170.073 54.5834 170.122 54.4394 170.192 54.3143C171.874 51.3536 173.559 48.3948 175.227 45.4265C175.397 45.1233 175.573 45.0019 175.93 45.0133C176.851 45.0417 177.772 45.0228 178.756 45.0228C178.665 45.1953 178.604 45.3242 178.532 45.4474C176.315 49.1643 174.097 52.8832 171.872 56.5945C171.686 56.9053 171.599 57.2124 171.601 57.5744C171.614 59.8016 171.606 62.0287 171.606 64.254C171.606 64.3601 171.599 64.4663 171.606 64.5724C171.621 64.7525 171.538 64.8075 171.366 64.8056C170.729 64.7999 170.092 64.8075 169.457 64.8018C169.08 64.798 168.702 64.8321 168.329 64.7771H168.331Z" fill="#0C2442"/>
<path d="M78.683 64.8074C78.6224 64.8112 78.3893 64.8093 78.3286 64.8093C78.6831 64.8093 76.5412 64.8093 75.6484 64.8093" fill="#046F5B"/>
<path d="M75.3633 64.8093C75.3633 58.5733 75.3633 51.7914 75.3633 45.5535C75.3633 45.508 75.3633 45.4625 75.3633 45.417C75.3671 45.0284 75.3671 45.0246 75.3671 45.0246C76.2143 45.0228 77.8406 45.0246 78.6879 45.0246C78.6879 45.0246 78.6879 45.0303 78.6879 45.4322C78.6879 49.5491 78.6879 53.666 78.6879 57.7829C78.6879 59.9475 78.6879 62.6409 78.6879 64.8055" fill="#046F5B"/>
<path d="M181.846 47V45.4639H182.365C182.485 45.4639 182.584 45.4845 182.661 45.5255C182.738 45.566 182.795 45.6217 182.832 45.6927C182.869 45.7637 182.887 45.8445 182.887 45.935C182.887 46.0255 182.869 46.1057 182.832 46.1757C182.795 46.2457 182.738 46.3007 182.661 46.3407C182.585 46.3802 182.487 46.4 182.368 46.4H181.948V46.232H182.362C182.444 46.232 182.51 46.22 182.56 46.196C182.611 46.172 182.647 46.138 182.67 46.094C182.693 46.0495 182.704 45.9965 182.704 45.935C182.704 45.8735 182.693 45.8197 182.67 45.7737C182.647 45.7277 182.61 45.6922 182.559 45.6672C182.509 45.6417 182.442 45.629 182.359 45.629H182.032V47H181.846ZM182.569 46.31L182.947 47H182.731L182.359 46.31H182.569Z" fill="#0C2442"/>
<path d="M182.299 47.4261C182.936 47.4261 183.453 46.9093 183.453 46.2718C183.453 45.6342 182.936 45.1174 182.299 45.1174C181.661 45.1174 181.145 45.6342 181.145 46.2718C181.145 46.9093 181.661 47.4261 182.299 47.4261Z" stroke="#0C2442" stroke-width="0.189545" stroke-miterlimit="10"/>
</svg>
