<svg width="200" height="110" viewBox="0 0 200 110" fill="none" xmlns="http://www.w3.org/2000/svg">
<rect width="200" height="110" fill="white"/>
<path d="M37.918 45.9284H45.1693C47.2145 45.9284 48.8185 46.5265 49.8643 47.5385C50.7242 48.4121 51.2122 49.6082 51.2122 51.0111V51.057C51.2122 53.702 49.6084 55.2888 47.3309 55.9327L51.7236 62.0271H48.3537L44.3561 56.4154H40.7767V62.0271H37.918V45.9284ZM44.9601 53.9088C47.0055 53.9088 48.3069 52.8512 48.3069 51.2181V51.1721C48.3069 49.4468 47.052 48.5046 44.9372 48.5046H40.7767V53.9086L44.9601 53.9088Z" fill="#323031"/>
<path d="M52.3281 56.0016V55.9556C52.3281 52.483 54.8146 49.6311 58.3243 49.6311C62.2288 49.6311 64.2046 52.6668 64.2046 56.1626C64.2046 56.4154 64.1812 56.6682 64.1578 56.9447H55.1402C55.4424 58.9222 56.86 60.0263 58.673 60.0263C60.0443 60.0263 61.0204 59.52 61.9965 58.5775L63.6469 60.0263C62.4845 61.4061 60.8809 62.3028 58.6263 62.3028C55.0703 62.303 52.3281 59.7504 52.3281 56.0016ZM61.4154 55.1049C61.2294 53.3109 60.1601 51.9078 58.301 51.9078C56.5809 51.9078 55.3723 53.2193 55.1166 55.1049H61.4154Z" fill="#323031"/>
<path d="M65.207 56.0243V55.9787C65.207 52.5288 67.9031 49.6309 71.5753 49.6309C73.8995 49.6309 75.3405 50.482 76.4793 51.7237L74.7361 53.5869C73.8762 52.69 72.9695 52.069 71.5522 52.069C69.5068 52.069 68.0193 53.8168 68.0193 55.9327V55.9787C68.0193 58.1403 69.5299 59.8882 71.6913 59.8882C73.0163 59.8882 73.9926 59.2673 74.8756 58.3704L76.5721 60.0267C75.3637 61.3603 73.9458 62.303 71.5522 62.303C67.9031 62.3028 65.207 59.4743 65.207 56.0243Z" fill="#323031"/>
<path d="M76.9648 56.0016V55.9556C76.9648 52.483 79.4518 49.6311 82.9615 49.6311C86.8664 49.6311 88.8415 52.6668 88.8415 56.1626C88.8415 56.4154 88.8183 56.6682 88.7952 56.9447H79.7771C80.0791 58.9222 81.4971 60.0263 83.3102 60.0263C84.6811 60.0263 85.6576 59.52 86.6332 58.5775L88.2834 60.0263C87.1219 61.4061 85.518 62.3028 83.2635 62.3028C79.7075 62.303 76.9648 59.7504 76.9648 56.0016ZM86.0528 55.1049C85.8668 53.3109 84.7972 51.9078 82.9381 51.9078C81.2181 51.9078 80.0097 53.2193 79.754 55.1049H86.0528Z" fill="#323031"/>
<path d="M90.5625 45.3768H93.5835V48.0216H90.5625V45.3768ZM90.6782 49.8839H93.4907V62.0273H90.6782V49.8839Z" fill="#323031"/>
<path d="M96 49.8839H98.8125V51.9076C99.7187 50.6429 100.997 49.6311 102.973 49.6311C105.878 49.6311 108.69 51.9076 108.69 55.9327V55.9787C108.69 60.0038 105.901 62.2803 102.973 62.2803C100.951 62.2803 99.6726 61.2682 98.8125 60.141V65.7067H96V49.8839ZM105.832 55.9787V55.9327C105.832 53.5868 104.228 52.0463 102.322 52.0463C100.417 52.0463 98.7433 53.6104 98.7433 55.9327V55.9787C98.7433 58.325 100.417 59.8653 102.322 59.8653C104.251 59.8653 105.832 58.3701 105.832 55.9787Z" fill="#323031"/>
<path d="M110.995 58.6692V52.2758H109.438V49.8839H110.995V46.5494H113.807V49.8839H117.108V52.2756H113.807V58.2323C113.807 59.3131 114.365 59.7502 115.318 59.7502C115.945 59.7502 116.503 59.6123 117.06 59.3364V61.6125C116.364 62.0037 115.573 62.2336 114.527 62.2336C112.459 62.2339 110.995 61.3368 110.995 58.6692Z" fill="#323031"/>
<path d="M123.66 59.6812L125.775 57.1748C127.239 58.3704 128.774 59.1296 130.633 59.1296C132.097 59.1296 132.98 58.5549 132.98 57.6117V57.5657C132.98 56.6684 132.423 56.2086 129.703 55.5189C126.427 54.6912 124.311 53.7943 124.311 50.5976V50.5518C124.311 47.6308 126.682 45.6989 130.006 45.6989C132.376 45.6989 134.398 46.4348 136.048 47.7457L134.189 50.4133C132.748 49.4243 131.33 48.8265 129.959 48.8265C128.588 48.8265 127.867 49.4475 127.867 50.2294V50.2752C127.867 51.3331 128.565 51.6781 131.376 52.3916C134.677 53.2422 136.536 54.415 136.536 57.2207V57.2667C136.536 60.4638 134.072 62.2576 130.563 62.2576C128.099 62.2572 125.613 61.4063 123.66 59.6812Z" fill="#49B01A"/>
<path d="M138.581 58.5313V52.69H137.094V49.7003H138.581V46.5494H142.113V49.7003H145.042V52.69H142.113V57.9568C142.113 58.7614 142.462 59.1523 143.253 59.1523C143.903 59.1523 144.484 58.9913 144.995 58.715V61.5208C144.251 61.9579 143.392 62.2336 142.207 62.2336C140.045 62.2339 138.581 61.3828 138.581 58.5313Z" fill="#49B01A"/>
<path d="M145.742 58.4851V58.4393C145.742 55.7486 147.811 54.5067 150.762 54.5067C152.017 54.5067 152.924 54.7139 153.807 55.0129V54.8057C153.807 53.3566 152.9 52.5515 151.134 52.5515C149.787 52.5515 148.834 52.8047 147.695 53.2189L146.811 50.5514C148.183 49.9533 149.531 49.5624 151.645 49.5624C153.575 49.5624 154.969 50.0683 155.853 50.9422C156.782 51.862 157.2 53.2189 157.2 54.8744V62.0271H153.784V60.6931C152.924 61.6358 151.739 62.257 150.019 62.257C147.671 62.257 145.742 60.923 145.742 58.4851ZM153.854 57.6805V57.0597C153.249 56.7836 152.46 56.5995 151.599 56.5995C150.088 56.5995 149.159 57.1974 149.159 58.3013V58.3473C149.159 59.2898 149.949 59.8422 151.088 59.8422C152.738 59.8424 153.854 58.9449 153.854 57.6805Z" fill="#49B01A"/>
<path d="M158.105 60.3945L159.616 58.094C160.964 59.0603 162.382 59.5661 163.544 59.5661C164.567 59.5661 165.032 59.1983 165.032 58.6461V58.6003C165.032 57.841 163.823 57.5884 162.452 57.1744C160.709 56.6678 158.733 55.8633 158.733 53.4717V53.4253C158.733 50.9189 160.778 49.5157 163.288 49.5157C164.869 49.5157 166.589 50.0445 167.937 50.942L166.589 53.3563C165.357 52.6437 164.125 52.2066 163.219 52.2066C162.359 52.2066 161.917 52.5744 161.917 53.0577V53.1035C161.917 53.7939 163.102 54.1158 164.451 54.5754C166.194 55.1503 168.216 55.9783 168.216 58.2321V58.2779C168.216 61.0146 166.147 62.2567 163.451 62.2567C161.708 62.257 159.756 61.682 158.105 60.3945Z" fill="#49B01A"/>
<path d="M169.59 45.2389H173.123V51.448C173.936 50.4128 174.982 49.4703 176.772 49.4703C179.444 49.4703 181.002 51.2181 181.002 54.0466V62.027H177.469V55.1505C177.469 53.4948 176.678 52.6439 175.33 52.6439C173.982 52.6439 173.122 53.495 173.122 55.1505V62.027H169.59V45.2389H169.59Z" fill="#49B01A"/>
<path d="M33.1883 73.2186C33.1883 73.2186 32.0807 48.277 20.0312 43.2065C20.0312 43.2065 22.8013 40.4654 26.61 40.0546C26.61 40.0546 36.6509 51.1549 33.1883 73.2186Z" fill="#323031"/>
<path d="M31.2958 72.5334C31.2958 72.5334 27.6028 51.703 18 49.1446C18 49.1446 19.0159 46.7693 22.4322 45.8559C22.4322 45.8559 33.1424 57.093 31.2958 72.5334Z" fill="#49B01A"/>
<path d="M62.4117 65.7726C62.4117 65.7726 53.1786 63.3057 38.6826 70.3404C38.6826 70.3404 39.3466 67.7959 39.3757 63.7623H36.2578V48.2464C34.8454 44.9339 32.8356 41.4889 30.0034 38.0903C30.0034 38.0903 44.7767 32.5172 58.7185 41.6528C58.7185 41.6528 62.1195 43.5819 64.5117 46.2737C63.524 44.0983 62.1532 41.9279 60.2805 39.8493C60.2805 39.8493 44.961 28.9542 26.6797 36.9028C26.6797 36.9028 38.8673 53.8957 35.2665 75.0001C35.2665 75.0001 50.7781 64.8588 64.6276 68.4222C64.6276 68.4222 65.9059 65.508 66.4863 61.1874C65.6912 63.079 64.423 64.9616 62.4117 65.7726Z" fill="#49B01A"/>
<path d="M36.532 45.3768C36.532 45.3768 34.9444 40.0904 32.8438 38.9679C32.8438 38.9679 41.2298 35.5784 51.7246 40.5322C51.7246 40.5322 41.1427 37.8827 36.0052 40.0548L36.532 45.3768Z" fill="#E3E4E5"/>
</svg>
