<svg width="200" height="110" viewBox="0 0 200 110" fill="none" xmlns="http://www.w3.org/2000/svg">
<rect width="200" height="110" fill="white"/>
<path fill-rule="evenodd" clip-rule="evenodd" d="M32.9069 57.4059C33.1259 57.1868 33.1259 56.8178 32.9069 56.5987C32.9069 56.5987 28.7209 52.4013 28.6979 52.4013C28.5826 52.286 28.5249 52.1476 28.5249 51.9977C28.5364 51.8478 28.5941 51.7094 28.6979 51.5941L37.3003 42.9917C37.4156 42.8764 37.4848 42.738 37.4848 42.565C37.4848 42.2537 37.231 42 36.9198 42H28.548C28.3981 42 28.2482 42.0692 28.1444 42.173L19.4728 50.8446C19.1845 51.1444 19 51.548 19 51.9977C19 52.4474 19.173 52.8395 19.4613 53.1393L27.9138 61.5918C28.1328 61.8108 28.5018 61.8108 28.7209 61.5918L32.9069 57.4059ZM38.6725 51.5941C38.4534 51.8132 38.4534 52.1822 38.6725 52.4013L42.8815 56.5987C42.9852 56.7141 43.0429 56.8524 43.0429 57.0024C43.0429 57.1523 42.9968 57.3022 42.8815 57.4059L34.2791 66.0083C34.1638 66.1121 34.0946 66.2621 34.0946 66.435C34.0946 66.7464 34.3482 67 34.6596 67H43.0314C43.1813 67 43.3311 66.9308 43.435 66.8271L52.1066 58.1555C52.3948 57.8556 52.5794 57.4521 52.5794 57.0024C52.5794 56.5526 52.3948 56.1605 52.1181 55.8607L43.6656 47.4083C43.4465 47.1892 43.0775 47.1892 42.8584 47.4083L38.6725 51.5941ZM72.5287 48.3653C71.1102 47.8695 68.9077 47.4428 67.0281 47.4428C63.6264 47.4428 61.4816 49.0572 61.4816 51.744C61.4816 54.1195 62.8999 55.1111 65.9442 55.7454C66.1193 55.7818 66.2926 55.8165 66.4626 55.8504C67.9613 56.1499 69.2076 56.399 69.2076 57.3828C69.2076 58.167 68.4465 58.5591 67.0051 58.5475C65.8058 58.5245 64.0184 58.2016 61.8391 57.3828L61.0779 60.3695C63.1997 61.1651 65.4022 61.5456 67.1434 61.5456C70.5682 61.5456 72.8284 60.0697 72.8284 57.1637C72.8284 54.5461 70.9719 53.6582 68.1698 53.0585C68.0415 53.0317 67.9168 53.0058 67.7958 52.9808L67.7941 52.9804C66.1024 52.63 65.1485 52.4325 65.1485 51.5826C65.1485 50.7408 65.8634 50.3833 67.0513 50.3833C68.2158 50.3833 69.9109 50.7062 71.8136 51.2828L72.5287 48.3653ZM76.7605 47.8233C78.3634 47.7426 80.1507 47.6619 82.0073 47.6619C85.6051 47.6619 87.9229 49.3224 87.9229 52.5051C87.9229 55.607 85.5935 57.5674 81.9958 57.5674H80.1162V61.1997H76.7605V47.8233ZM80.1277 50.464V54.6269H82.2033C83.5871 54.6269 84.5673 53.8543 84.5673 52.5281C84.5673 51.1674 83.5871 50.4294 82.2033 50.4294C81.5115 50.4294 80.808 50.441 80.1277 50.464ZM114.929 47.8234V55.5609L108.622 47.8234H105.52V61.1998H108.875V53.5315L115.195 61.1998H118.274V47.8234H114.929ZM122.736 47.8118C124.213 47.7311 125.919 47.6503 127.798 47.6503C132.226 47.6503 135.202 50.1642 135.19 54.4307C135.19 58.732 132.215 61.3726 128.133 61.3726C126.115 61.3726 124.213 61.292 122.736 61.2112V47.8118ZM126.103 58.2937C126.806 58.3283 127.545 58.3283 128.225 58.3283C130.163 58.3283 131.719 56.8293 131.73 54.3961C131.73 52.0207 130.174 50.66 127.948 50.66C127.36 50.66 126.726 50.66 126.103 50.6946V58.2937ZM164.226 48.3653C162.807 47.8695 160.605 47.4428 158.725 47.4428C155.324 47.4428 153.179 49.0572 153.179 51.744C153.179 54.1195 154.597 55.1111 157.642 55.7454C157.817 55.7818 157.99 55.8165 158.16 55.8504C159.658 56.1499 160.905 56.399 160.905 57.3828C160.905 58.167 160.144 58.5591 158.702 58.5475C157.503 58.5245 155.716 58.2016 153.536 57.3828L152.775 60.3695C154.897 61.1651 157.1 61.5456 158.841 61.5456C162.266 61.5456 164.526 60.0697 164.526 57.1637C164.526 54.5461 162.669 53.6582 159.867 53.0585C159.739 53.0316 159.613 53.0056 159.492 52.9804C157.8 52.63 156.846 52.4325 156.846 51.5826C156.846 50.7408 157.56 50.3833 158.749 50.3833C159.914 50.3833 161.608 50.7062 163.511 51.2828L164.226 48.3653ZM173.924 56.6679H171.825V61.1998H168.47V47.8234H171.836V53.3815H172.494L176.933 47.8234H181.016L176.069 53.9811L181.327 61.1998H177.21L173.924 56.6679ZM94.5881 53.0817V50.6601H101.507V47.8118H91.2209V61.1882H101.507V58.34H94.5881V55.9183H100.365V53.0817H94.5881ZM142.397 50.6601V53.0817H148.174V55.9183H142.397V58.34H149.316V61.1882H139.03V47.8118H149.316V50.6601H142.397Z" fill="#5D21D2"/>
</svg>
