<svg width="200" height="110" viewBox="0 0 200 110" fill="none" xmlns="http://www.w3.org/2000/svg">
<rect width="200" height="110" fill="white"/>
<path d="M97.5904 64.4455C98.5386 65.5983 100.625 66.7032 102.9 66.7032C109.064 66.7032 112.525 61.6595 112.525 55.511C112.525 49.3625 109.064 44.2708 102.9 44.2708C100.625 44.2708 98.5386 45.3756 97.5904 46.5284V35H91.6641V66.2228H97.5904V64.4455ZM97.5904 51.9564C98.2541 50.5153 99.8661 49.4586 101.573 49.4586C104.749 49.4586 106.646 52.0524 106.646 55.511C106.646 58.9214 104.749 61.5154 101.573 61.5154C99.8187 61.5154 98.2541 60.5066 97.5904 59.0176V51.9564Z" fill="black"/>
<path d="M128.673 74.1485H134.552V44.751H128.673V46.5283C127.725 45.3754 125.639 44.2706 123.363 44.2706C117.2 44.2706 113.691 49.4585 113.691 55.5109C113.691 61.5633 117.2 66.703 123.363 66.703C125.639 66.703 127.725 65.5982 128.673 64.4454V74.1485ZM128.673 59.0175C127.962 60.5065 126.397 61.5153 124.691 61.5153C121.514 61.5153 119.618 58.9213 119.618 55.5109C119.618 52.0523 121.514 49.4585 124.691 49.4585C126.445 49.4585 127.962 50.5152 128.673 51.9563V59.0175Z" fill="black"/>
<path d="M154.999 56.8558V54.9344C154.999 48.5937 151.823 44.2706 145.659 44.2706C139.875 44.2706 135.703 48.93 135.703 55.6549C135.703 62.4759 140.112 66.703 146.56 66.703C149.405 66.703 151.775 66.1266 153.529 64.8296V59.9301C151.443 61.275 149.784 61.8035 147.461 61.8035C144.332 61.8035 141.819 60.3624 141.345 56.8558H154.999ZM145.802 49.0262C148.125 49.0262 149.405 50.6593 149.547 52.9649H141.535C142.198 50.2751 143.858 49.0262 145.802 49.0262Z" fill="black"/>
<path d="M63.7943 71.1183C72.9414 70.2371 80.0939 62.5069 80.0939 53.101C80.0939 49.2227 78.8779 45.6292 76.8075 42.6834L76.7614 42.618L76.9636 43.1315C78.8331 47.8798 76.9806 53.287 72.596 55.8794L59.9836 63.361L59.5567 63.6236C57.3126 65.0037 54.4283 63.3839 54.4283 60.7436C49.616 67.5818 58.4386 70.7997 63.193 71.023L63.7943 71.1183Z" fill="#FF5722"/>
<path d="M45.7152 45.3363C45.7117 45.3438 45.7082 45.351 45.7047 45.3585C44.6112 47.6961 44 50.3063 44 53.0595C44 59.3498 47.1898 64.8923 52.0347 68.1468C54.9073 70.0765 58.3618 71.2019 62.0782 71.2019C62.6293 71.2019 63.1747 71.1772 63.7133 71.1286L63.8052 71.1202L63.1913 71.023C58.1548 70.2255 54.4451 65.8691 54.4451 60.7522V46.1646C54.4451 43.3777 57.4782 41.6579 59.8588 43.095L60.442 43.4471C57.2278 36.8476 48.4113 40.6314 45.8738 45.1395L45.7152 45.3363Z" fill="#FDC20F"/>
<path d="M54.4517 61.1835C54.4338 61.0403 54.4244 60.8934 54.4244 60.7433C49.6121 67.5815 58.4345 70.7994 63.1889 71.0227C58.2947 70.2477 54.6534 66.1119 54.4517 61.1835Z" fill="#FDC20F"/>
<path d="M45.8752 45.1396L45.6055 45.4741L45.6318 45.4175C48.5129 39.2623 54.7483 35 61.9762 35C68.0763 35 73.4695 38.0359 76.7359 42.6835C76.7755 42.7397 76.8146 42.7962 76.8535 42.853L76.9633 43.1315C78.8905 46.2629 79.2916 56.7212 71.8389 56.3189L71.905 56.2764C74.1904 54.8099 74.1547 51.4492 71.8389 50.0317L59.0883 42.6794C54.6803 40.1266 49.0761 41.1702 45.8752 45.1396Z" fill="#FF9900"/>
<path d="M76.9615 43.1316C78.8875 46.2609 79.2893 56.7077 71.8516 56.3197L72.5939 55.8795C76.9786 53.2871 78.831 47.88 76.9615 43.1316Z" fill="#FF5722"/>
<path d="M59.3993 42.8588L59.088 42.6793C54.6801 40.1266 49.0759 41.1701 45.875 45.1395C48.4124 40.6314 57.229 36.8476 60.4432 43.4471L59.86 43.095C59.7087 43.0037 59.5549 42.9251 59.3993 42.8588Z" fill="#FF9900"/>
</svg>
