<svg width="200" height="110" viewBox="0 0 200 110" fill="none" xmlns="http://www.w3.org/2000/svg">
<rect width="200" height="110" fill="white"/>
<path d="M31.1083 64.5115C30.0787 64.5115 29.0407 64.598 28.0218 64.4899C26.6959 64.3515 25.6962 63.6056 25.1804 62.3407C24.786 61.372 24.5047 60.3536 24.1636 59.3612C23.6797 57.945 23.0637 56.6001 22.2153 55.359C21.4458 54.2347 20.7893 53.039 20.3523 51.733C20.1584 51.1535 20.0028 50.5633 20.007 49.9427C20.0134 49.1514 19.9708 48.3557 20.0411 47.5686C20.169 46.1265 20.6209 44.7773 21.3627 43.534C22.8165 41.1016 24.8947 39.454 27.54 38.5545C28.9746 38.0659 30.4624 37.9361 31.9758 38.0269C33.7728 38.1329 35.4482 38.628 37 39.5405C38.2555 40.2778 39.3255 41.2464 40.2272 42.401C41.1267 43.5535 41.7896 44.8292 42.0966 46.267C42.5058 48.1762 42.5272 50.0898 41.909 51.9665C41.5722 52.9892 41.0265 53.9103 40.4681 54.8184C39.8542 55.8174 39.1422 56.7558 38.718 57.865C38.2001 59.2228 37.6714 60.5763 37.1854 61.9472C36.7271 63.2337 35.8468 64.0423 34.5828 64.438C34.2993 64.5266 33.9881 64.5396 33.6896 64.5439C32.8285 64.5569 31.9673 64.5483 31.1062 64.5483C31.1062 64.5375 31.1062 64.5245 31.1062 64.5137L31.1083 64.5115ZM31.0678 62.3709C31.8842 62.3709 32.7027 62.3709 33.5191 62.3709C34.3675 62.3709 34.8407 62.0401 35.1306 61.2336C35.4397 60.3731 35.7466 59.5104 36.0472 58.6455C36.5545 57.1882 37.2451 55.826 38.0636 54.5222C38.6008 53.666 39.1316 52.8011 39.5771 51.893C40.3103 50.3968 40.4084 48.7989 40.0716 47.1795C39.8073 45.9059 39.3063 44.7384 38.4814 43.7156C37.2067 42.1372 35.6571 41.0064 33.6811 40.5178C32.0782 40.1221 30.4859 40.0334 28.8701 40.4745C27.0668 40.9653 25.5108 41.8302 24.2446 43.2421C23.0339 44.5935 22.4051 46.1935 22.1578 47.9687C21.9404 49.5297 22.2686 51.0022 23.0019 52.3687C23.4794 53.2595 24.0442 54.1049 24.5729 54.9655C25.7197 56.8336 26.3655 58.9115 26.9986 60.9915C27.2608 61.852 27.6892 62.4055 28.7231 62.3709C29.5032 62.345 30.2855 62.3666 31.0678 62.3645V62.3709Z" fill="black"/>
<path d="M31.1687 65.3331C32.3304 65.3331 33.4943 65.3288 34.656 65.3374C34.8563 65.3374 35.0631 65.372 35.2507 65.4369C35.596 65.5558 35.7793 65.8693 35.7601 66.2347C35.7431 66.5526 35.4937 66.8791 35.1761 66.9656C35.0162 67.0088 34.8435 67.0369 34.6773 67.0369C32.3432 67.0412 30.0091 67.0369 27.675 67.0369C27.5599 67.0369 27.4448 67.0218 27.3319 67.0002C26.8075 66.9029 26.5922 66.6326 26.6242 66.1331C26.6562 65.6574 26.9674 65.3461 27.464 65.3439C28.6982 65.3331 29.9303 65.3396 31.1644 65.3396C31.1644 65.3396 31.1644 65.3374 31.1644 65.3353L31.1687 65.3331Z" fill="black"/>
<path d="M31.1767 69.5407C30.032 69.5407 28.8873 69.5407 27.7427 69.5407C27.6276 69.5407 27.5103 69.5407 27.3974 69.5277C26.8197 69.4607 26.4318 68.8034 26.6918 68.278C26.7728 68.1137 26.9625 67.9753 27.1352 67.8931C27.2865 67.8218 27.4826 67.8326 27.6574 67.8326C29.9553 67.8283 32.2552 67.8283 34.5531 67.8326C34.7385 67.8326 34.924 67.852 35.1073 67.8823C35.4611 67.9407 35.734 68.2564 35.7489 68.6002C35.7638 68.9894 35.4867 69.4023 35.1414 69.478C34.9879 69.5126 34.8259 69.5191 34.666 69.5213C33.5043 69.5256 32.3405 69.5213 31.1788 69.5213C31.1788 69.5277 31.1788 69.5342 31.1788 69.5407H31.1767Z" fill="black"/>
<path d="M31.1366 71.9537C30.657 71.9537 30.1795 71.958 29.6999 71.9537C29.248 71.9494 28.8537 71.558 28.8516 71.1256C28.8494 70.6715 29.2374 70.2715 29.7063 70.2672C30.6719 70.2607 31.6397 70.2607 32.6053 70.265C33.0572 70.265 33.4409 70.6564 33.4451 71.0996C33.4494 71.6229 33.1446 71.9451 32.6266 71.9537C32.1299 71.9602 31.6333 71.9537 31.1366 71.9537Z" fill="black"/>
<path d="M34.0149 47.9557C33.7847 47.9557 33.5523 47.9492 33.3221 47.9557C33.1473 47.9622 33.0557 47.8995 32.9939 47.7178C32.7445 46.9784 32.1839 46.5935 31.4037 46.5416C30.8431 46.5027 30.3187 46.5827 29.8626 46.9243C29.1869 47.4303 29.3382 48.4876 30.1653 48.7903C30.8005 49.0216 31.4762 49.1535 32.1434 49.2854C33.1282 49.48 34.0511 49.7611 34.7055 50.6152C35.2576 51.333 35.3173 52.1265 35.1958 52.9914C35.0444 54.0573 33.6312 55.3914 32.3736 55.4671C32.1668 55.4801 32.0922 55.5557 32.1071 55.7633C32.122 56.0055 32.1071 56.2498 32.1135 56.492C32.122 56.7168 32.0368 56.8271 31.8044 56.8228C31.4144 56.8163 31.0222 56.812 30.6321 56.8249C30.4253 56.8336 30.3614 56.7255 30.355 56.5525C30.3464 56.2909 30.3379 56.0293 30.3507 55.7698C30.3592 55.5644 30.2846 55.4822 30.0821 55.4628C28.8842 55.359 27.9996 54.7341 27.4049 53.7049C27.2386 53.4152 27.2109 53.039 27.1491 52.6973C27.1384 52.6325 27.2642 52.4768 27.3324 52.4746C27.9164 52.4573 28.5005 52.4617 29.0845 52.4746C29.1485 52.4746 29.2529 52.5611 29.2679 52.6238C29.4363 53.3849 30.0033 53.6963 30.6683 53.7936C31.2204 53.8736 31.8002 53.9276 32.3459 53.6854C32.851 53.4606 33.1836 53.1168 33.1644 52.5179C33.1473 51.9925 32.8361 51.6076 32.2265 51.413C31.8982 51.3071 31.5529 51.2638 31.2204 51.1773C30.517 50.9979 29.7944 50.8703 29.1187 50.613C28.2362 50.2757 27.5988 49.6227 27.3985 48.6627C27.2215 47.8108 27.3281 46.9719 27.8632 46.2454C28.2298 45.7459 28.7073 45.3697 29.2721 45.1254C29.4874 45.0324 29.7283 44.9827 29.9628 44.9524C30.3443 44.9005 30.3486 44.9135 30.3486 44.5135C30.3486 44.2886 30.3422 44.0637 30.3486 43.8389C30.355 43.5383 30.421 43.467 30.7109 43.467C31.084 43.467 31.457 43.4735 31.83 43.48C32.0347 43.4821 32.1348 43.5686 32.1199 43.7956C32.1029 44.0832 32.1199 44.3729 32.1114 44.6605C32.105 44.84 32.1583 44.9221 32.348 44.9265C33.3861 44.9524 34.9059 46.2216 35.0423 47.547C35.0722 47.8454 34.9997 47.947 34.7034 47.9492C34.4732 47.9513 34.2408 47.9492 34.0106 47.9492L34.0149 47.9557Z" fill="black"/>
<path d="M51.7078 58.1546C51.7078 58.4789 51.7334 58.7751 51.7846 59.0411C51.8357 59.307 51.9317 59.5319 52.0723 59.7135C52.213 59.8952 52.4027 60.0379 52.6393 60.1416C52.8759 60.2454 53.1744 60.2973 53.5325 60.2973C53.9545 60.2973 54.3361 60.1589 54.675 59.8779C55.0139 59.5989 55.1844 59.1665 55.1844 58.5827C55.1844 58.2714 55.1418 58.0011 55.0587 57.7741C54.9755 57.547 54.837 57.3416 54.6452 57.16C54.4533 56.9784 54.1997 56.8119 53.8863 56.6627C53.573 56.5135 53.185 56.36 52.7246 56.2043C52.1107 55.9967 51.5778 55.7697 51.1302 55.5232C50.6825 55.2767 50.3074 54.987 50.0068 54.6562C49.7063 54.3254 49.4846 53.9427 49.3439 53.5059C49.2032 53.0713 49.1329 52.5675 49.1329 51.9967C49.1329 50.6194 49.5102 49.5945 50.2669 48.9199C51.0215 48.2453 52.0595 47.908 53.379 47.908C53.9929 47.908 54.5599 47.975 55.0779 48.1134C55.5958 48.2518 56.0435 48.4702 56.4229 48.7751C56.8002 49.0799 57.0943 49.4691 57.3054 49.9448C57.5164 50.4183 57.623 50.987 57.623 51.6486V52.0378H54.9734C54.9734 51.3762 54.8583 50.8659 54.6281 50.5091C54.3979 50.1524 54.0142 49.9729 53.4749 49.9729C53.168 49.9729 52.9122 50.0183 52.7075 50.1091C52.5029 50.1999 52.3388 50.321 52.2173 50.4702C52.0958 50.6194 52.0127 50.7924 51.9679 50.987C51.9231 51.1816 51.8997 51.3826 51.8997 51.5902C51.8997 52.0183 51.9892 52.3794 52.1683 52.6713C52.3473 52.9632 52.731 53.2335 53.3214 53.48L55.453 54.414C55.9774 54.6475 56.4058 54.8919 56.7405 55.1448C57.073 55.3978 57.3395 55.6703 57.5377 55.9621C57.7359 56.254 57.8745 56.5762 57.9512 56.9265C58.028 57.2768 58.0663 57.6659 58.0663 58.0962C58.0663 59.5643 57.6464 60.6325 56.8087 61.3006C55.971 61.9687 54.8029 62.3038 53.3044 62.3038C51.8059 62.3038 50.625 61.96 49.9535 61.2703C49.2821 60.5827 48.9453 59.5946 48.9453 58.3103V57.7459H51.71V58.1546H51.7078Z" fill="black"/>
<path d="M63.6115 48.1805L65.5704 57.999H65.6087L67.5869 48.1805H71.6774V62.0899H69.1429V50.9871H69.1045L66.666 62.0899H64.5153L62.0767 50.9871H62.0384V62.0899H59.5039V48.1805H63.6136H63.6115Z" fill="black"/>
<path d="M79.7441 48.1805L83.3742 62.0899H80.4944L79.8613 59.1493H76.2121L75.579 62.0899H72.6992L76.3293 48.1805H79.7484H79.7441ZM79.3796 56.8487L78.0537 50.5957H78.0154L76.6895 56.8487H79.3775H79.3796Z" fill="black"/>
<path d="M89.4414 48.1805C90.5946 48.1805 91.4899 48.4768 92.1294 49.067C92.7688 49.6573 93.0886 50.5568 93.0886 51.7654C93.0886 52.6995 92.9031 53.4628 92.5322 54.0552C92.1613 54.6455 91.5837 55.026 90.8035 55.1947V55.2336C91.4941 55.3374 92.0015 55.5644 92.3212 55.9147C92.6409 56.2649 92.8392 56.8293 92.9159 57.6098C92.9415 57.8693 92.9607 58.1525 92.9735 58.4574C92.9862 58.7623 92.999 59.1039 93.0118 59.4801C93.0374 60.2196 93.0758 60.7861 93.1269 61.1753C93.2037 61.5644 93.3699 61.8304 93.6257 61.9731V62.0899H90.6309C90.4902 61.8953 90.4006 61.6704 90.3623 61.4174C90.3239 61.1644 90.2983 60.9007 90.2855 60.6282L90.2088 57.9601C90.1832 57.4152 90.0489 56.9871 89.8059 56.6736C89.5629 56.3622 89.1537 56.2066 88.576 56.2066H87.0967V62.0899H84.332V48.1805H89.4393H89.4414ZM88.2499 54.2584C88.9149 54.2584 89.4286 54.1006 89.7867 53.7806C90.1448 53.4628 90.3239 52.9265 90.3239 52.1741C90.3239 50.8876 89.6844 50.2454 88.4033 50.2454H87.0967V54.2584H88.2499Z" fill="black"/>
<path d="M102.692 50.4789H99.697V62.0899H96.9324V50.4789H93.9375V48.1805H102.694V50.4789H102.692Z" fill="black"/>
<path d="M113.602 48.1805C114.755 48.1805 115.65 48.4768 116.29 49.067C116.929 49.6573 117.249 50.5568 117.249 51.7654C117.249 52.6995 117.063 53.4628 116.692 54.0552C116.321 54.6455 115.744 55.026 114.964 55.1947V55.2336C115.654 55.3374 116.162 55.5644 116.481 55.9147C116.801 56.2649 116.999 56.8293 117.076 57.6098C117.102 57.8693 117.121 58.1525 117.134 58.4574C117.146 58.7623 117.159 59.1039 117.172 59.4801C117.198 60.2196 117.236 60.7861 117.287 61.1753C117.364 61.5644 117.53 61.8304 117.786 61.9731V62.0899H114.791C114.65 61.8953 114.561 61.6704 114.522 61.4174C114.484 61.1644 114.458 60.9007 114.446 60.6282L114.369 57.9601C114.343 57.4152 114.209 56.9871 113.966 56.6736C113.723 56.3622 113.314 56.2066 112.736 56.2066H111.257V62.0899H108.492V48.1805H113.599H113.602ZM112.41 54.2584C113.075 54.2584 113.589 54.1006 113.947 53.7806C114.305 53.4628 114.484 52.9265 114.484 52.1741C114.484 50.8876 113.845 50.2454 112.564 50.2454H111.257V54.2584H112.41Z" fill="black"/>
<path d="M126.831 50.4789H121.935V53.7525H126.543V56.0509H121.935V59.7915H127.023V62.0899H119.168V48.1805H126.831V50.4789Z" fill="black"/>
<path d="M133.909 50.6648C133.672 50.2042 133.239 49.9729 132.613 49.9729C132.267 49.9729 131.982 50.068 131.758 50.2561C131.534 50.4442 131.357 50.7491 131.229 51.1707C131.101 51.5924 131.012 52.1437 130.961 52.827C130.91 53.508 130.884 54.3426 130.884 55.3308C130.884 56.3837 130.918 57.2335 130.991 57.8821C131.061 58.5308 131.17 59.0346 131.317 59.3913C131.464 59.7481 131.649 59.9881 131.873 60.1113C132.097 60.2346 132.357 60.2973 132.651 60.2973C132.894 60.2973 133.122 60.2562 133.333 60.1719C133.544 60.0876 133.727 59.9189 133.881 59.6659C134.034 59.413 134.156 59.0562 134.245 58.5935C134.335 58.133 134.38 57.5254 134.38 56.7729H137.144C137.144 57.5254 137.087 58.2411 136.972 58.9157C136.857 59.5903 136.641 60.1827 136.328 60.6887C136.015 61.1946 135.573 61.5903 135.002 61.8779C134.433 62.1633 133.693 62.306 132.783 62.306C131.745 62.306 130.92 62.1373 130.306 61.8C129.692 61.4627 129.221 60.9762 128.895 60.3384C128.569 59.7027 128.358 58.9416 128.262 58.0594C128.166 57.1773 128.117 56.2021 128.117 55.1383C128.117 54.0745 128.166 53.1167 128.262 52.2259C128.358 51.3372 128.569 50.574 128.895 49.9361C129.221 49.3004 129.692 48.8031 130.306 48.4464C130.92 48.0896 131.747 47.9102 132.783 47.9102C133.819 47.9102 134.546 48.0723 135.117 48.3966C135.686 48.721 136.113 49.134 136.394 49.6334C136.675 50.1329 136.852 50.6734 136.923 51.2507C136.993 51.828 137.029 52.3707 137.029 52.8767H134.265C134.265 51.8626 134.145 51.1275 133.909 50.6648Z" fill="black"/>
<path d="M146.382 50.4789H141.486V53.7525H146.094V56.0509H141.486V59.7915H146.574V62.0899H138.719V48.1805H146.382V50.4789Z" fill="black"/>
<path d="M148.09 48.1805H150.854V62.0899H148.09V48.1805Z" fill="black"/>
<path d="M157.747 48.1805C158.45 48.1805 159.043 48.3016 159.523 48.5416C160.002 48.7816 160.39 49.0973 160.684 49.4865C160.979 49.8757 161.19 50.3211 161.317 50.8206C161.445 51.32 161.509 51.8303 161.509 52.3492C161.509 53.0627 161.403 53.6876 161.192 54.2195C160.981 54.7514 160.687 55.1882 160.309 55.5255C159.932 55.8628 159.474 56.1157 158.936 56.2844C158.399 56.453 157.802 56.5374 157.15 56.5374H155.671V62.0899H152.906V48.1805H157.745H157.747ZM156.903 54.4725C157.453 54.4725 157.898 54.3038 158.237 53.9665C158.576 53.6292 158.747 53.1038 158.747 52.3881C158.747 51.6725 158.6 51.1535 158.306 50.7903C158.011 50.427 157.519 50.2454 156.826 50.2454H155.673V54.4725H156.903Z" fill="black"/>
<path d="M170.903 50.4789H167.908V62.0899H165.143V50.4789H162.148V48.1805H170.905V50.4789H170.903Z" fill="black"/>
<path d="M174.325 58.1546C174.325 58.4789 174.351 58.7751 174.402 59.0411C174.453 59.307 174.549 59.5319 174.69 59.7135C174.83 59.8952 175.02 60.0379 175.257 60.1416C175.493 60.2454 175.792 60.2973 176.15 60.2973C176.572 60.2973 176.953 60.1589 177.292 59.8779C177.631 59.5989 177.802 59.1665 177.802 58.5827C177.802 58.2714 177.759 58.0011 177.676 57.7741C177.593 57.547 177.454 57.3416 177.262 57.16C177.07 56.9784 176.817 56.8119 176.503 56.6627C176.19 56.5135 175.802 56.36 175.342 56.2043C174.728 55.9967 174.195 55.7697 173.747 55.5232C173.3 55.2767 172.925 54.987 172.624 54.6562C172.323 54.3254 172.102 53.9427 171.961 53.5059C171.82 53.0713 171.75 52.5675 171.75 51.9967C171.75 50.6194 172.127 49.5945 172.884 48.9199C173.639 48.2453 174.677 47.908 175.996 47.908C176.61 47.908 177.177 47.975 177.695 48.1134C178.213 48.2518 178.661 48.4702 179.04 48.7751C179.417 49.0799 179.712 49.4691 179.923 49.9448C180.134 50.4183 180.24 50.987 180.24 51.6486V52.0378H177.591C177.591 51.3762 177.476 50.8659 177.245 50.5091C177.015 50.1524 176.631 49.9729 176.092 49.9729C175.785 49.9729 175.529 50.0183 175.325 50.1091C175.12 50.1999 174.956 50.321 174.834 50.4702C174.713 50.6194 174.63 50.7924 174.585 50.987C174.54 51.1816 174.517 51.3826 174.517 51.5902C174.517 52.0183 174.606 52.3794 174.785 52.6713C174.964 52.9632 175.348 53.2335 175.939 53.48L178.07 54.414C178.595 54.6475 179.023 54.8919 179.358 55.1448C179.69 55.3978 179.957 55.6703 180.155 55.9621C180.353 56.254 180.492 56.5762 180.568 56.9265C180.645 57.2768 180.684 57.6659 180.684 58.0962C180.684 59.5643 180.264 60.6325 179.426 61.3006C178.588 61.9687 177.42 62.3038 175.922 62.3038C174.423 62.3038 173.242 61.96 172.571 61.2703C171.899 60.5827 171.562 59.5946 171.562 58.3103V57.7459H174.327V58.1546H174.325Z" fill="black"/>
</svg>
