<svg width="200" height="110" viewBox="0 0 200 110" fill="none" xmlns="http://www.w3.org/2000/svg">
<rect width="200" height="110" fill="white"/>
<path d="M40.273 62.7576C40.542 64.0323 41.0502 65.218 41.7677 66.2852C44.1293 69.8722 47.8062 70.969 51.7522 70.5244C53.5159 70.3465 55.1302 69.635 56.5651 68.5382C56.7445 68.4196 56.9238 68.301 57.1331 68.1528C57.1331 68.7457 57.1331 69.2793 57.1331 69.8129C57.1331 70.0501 57.1929 70.139 57.432 70.139C58.9267 70.139 60.4214 70.139 61.9161 70.1093C62.3944 70.1093 62.3944 70.1093 62.3944 69.6054C62.3944 63.0244 62.3944 56.4137 62.3944 49.8327V49.4176C61.8264 49.4176 61.3182 49.4176 60.81 49.4176C59.704 49.4176 58.6278 49.4176 57.5217 49.388C57.1929 49.388 57.0733 49.4769 57.1331 49.8327C57.1929 50.1884 57.163 50.5738 57.163 50.9295C57.163 51.0481 57.1331 51.1963 57.1032 51.3742C53.8747 48.8247 50.3173 48.1429 46.4909 49.5362C42.6047 50.9591 40.6616 53.9532 40.1235 57.8663C40.1235 57.8663 39.9741 59.6746 40.004 60.4157C40.004 61.0086 40.273 62.7576 40.273 62.7576ZM50.975 65.8109C54.5622 65.8109 57.1929 63.2319 57.1929 59.7042C57.1929 56.4137 54.5622 53.8643 51.1842 53.805C47.7165 53.7161 44.9962 56.2358 44.9962 59.7338C44.9962 63.2022 47.5372 65.8109 50.975 65.8109Z" fill="black"/>
<path d="M112.885 61.7794C113.005 62.0462 113.124 62.2834 113.214 62.5205C113.692 63.5284 114.26 64.4474 115.187 65.1292C116.293 65.9296 117.579 66.2557 118.924 66.2853C120.538 66.3446 121.973 65.8407 123.258 64.9217C123.557 64.7142 123.796 64.4474 124.036 64.1806C124.155 64.0324 124.275 64.0027 124.454 64.0917C125.56 64.7438 126.666 65.4256 127.772 66.0778C128.011 66.226 128.041 66.3743 127.862 66.6114C126.128 68.6865 123.976 70.1391 121.255 70.4948C119.492 70.732 117.668 70.732 115.904 70.2873C112.885 69.5166 110.524 67.8565 109.029 65.0403C108.132 63.3209 107.863 61.483 107.833 59.6154C107.803 57.5106 108.371 55.5541 109.477 53.7754C110.823 51.6411 112.736 50.0996 115.187 49.3881C118.147 48.5284 121.106 48.647 123.796 50.2478C126.547 51.8782 128.28 54.2794 128.878 57.4513C129.118 58.726 129.177 60.0304 129.058 61.3347C129.028 61.6312 128.878 61.6905 128.639 61.6905C127.892 61.6905 127.145 61.6905 126.397 61.6905C124.394 61.6905 122.391 61.6905 120.389 61.6905C117.937 61.6905 115.486 61.7201 113.035 61.7498C113.005 61.7201 112.975 61.7498 112.885 61.7794ZM124.424 57.6292C124.275 56.7992 123.976 56.1173 123.527 55.4948C122.421 54.0719 120.957 53.3901 119.133 53.3604C117.07 53.3308 115.157 53.7162 113.782 55.4355C113.334 55.9691 112.945 56.5324 112.915 57.2735C112.885 57.5699 112.975 57.6588 113.274 57.6588C116.831 57.6588 120.389 57.6588 123.946 57.6588C124.095 57.6292 124.245 57.6292 124.424 57.6292Z" fill="black"/>
<path d="M85.204 70.5837C83.8289 70.554 82.4837 70.5244 81.1385 70.0797C79.1057 69.3979 77.5213 68.1825 76.3555 66.3742C76.0864 65.9592 76.0864 65.9295 76.5348 65.6924C77.7007 65.0698 78.8666 64.4769 80.0324 63.8544C80.3613 63.6765 80.421 63.973 80.5107 64.1508C81.1086 65.2773 82.0054 65.9888 83.2311 66.2852C84.2773 66.552 85.3535 66.5817 86.3998 66.4038C87.1172 66.2852 87.8048 66.0777 88.3728 65.6331C88.9707 65.1884 89.2397 64.5955 89.1201 63.8544C89.0305 63.2615 88.582 62.9058 88.0738 62.6983C87.5657 62.4611 87.0575 62.2536 86.5194 62.1054C84.8453 61.6311 83.1713 61.1864 81.4972 60.6825C80.421 60.3564 79.4345 59.8821 78.5975 59.141C76.5946 57.4216 76.3854 54.635 77.6409 52.5006C78.6274 50.8109 80.1819 49.803 82.0353 49.3287C85.4432 48.469 88.6717 48.7655 91.5116 51.0481C92.1095 51.552 92.5878 52.2042 93.1259 52.7971C93.3352 53.0342 93.3053 53.2121 92.9764 53.3603C91.8106 53.9236 90.6447 54.4868 89.5087 55.0797C89.3294 55.1686 89.1799 55.2279 89.0902 55.0204C88.1037 53.2418 86.4596 52.9157 84.6062 53.0342C83.8887 53.0935 83.2609 53.2418 82.7229 53.7161C81.7364 54.5757 81.6467 55.9987 83.2012 56.6212C83.9186 56.9176 84.6959 57.0659 85.4432 57.2734C86.9379 57.6884 88.4625 58.0738 89.9572 58.5481C91.2426 58.9631 92.2889 59.7931 93.1558 60.8307C93.7836 61.6014 93.9629 62.5204 93.9928 63.469C94.0227 64.0026 94.0227 64.5066 93.9928 65.0105C93.933 66.3742 93.2455 67.4117 92.259 68.2714C90.4654 69.8129 88.3728 70.5837 86.0112 70.6133C85.7421 70.5837 85.4731 70.5837 85.204 70.5837Z" fill="black"/>
<path d="M103.348 53.0936C103.348 56.8881 103.348 60.6825 103.348 64.477C103.348 65.0995 103.677 65.4553 104.305 65.4849C104.753 65.5146 105.201 65.4849 105.65 65.4849C105.859 65.4849 105.949 65.5442 105.949 65.7814C105.949 67.145 105.949 68.5086 105.919 69.8426C105.919 69.9612 105.739 70.1984 105.62 70.1984C104.155 70.3466 102.69 70.4652 101.255 70.1094C99.671 69.7241 98.4753 68.3011 98.4454 66.641C98.3557 63.4098 98.2959 60.1786 98.266 56.9474C98.2361 52.1746 98.266 47.4019 98.266 42.6588C98.266 42.2438 98.2361 41.8288 98.2062 41.4434C98.1763 41.2062 98.2361 41.1173 98.5052 41.1173C99.9998 41.1173 101.465 41.1173 102.959 41.1173C103.258 41.1173 103.288 41.2655 103.288 41.5027C103.288 43.6074 103.288 45.7122 103.288 47.8466C103.288 49.5956 103.288 51.3446 103.288 53.0936C103.318 53.0936 103.348 53.0936 103.348 53.0936Z" fill="black"/>
<path d="M67.8047 70.139V49.4176C68.3727 49.4176 68.9407 49.4176 69.4787 49.4176C70.5549 49.4176 71.6311 49.4176 72.6774 49.4176C72.9763 49.4176 73.0062 49.5658 73.0062 49.7733C73.0062 50.5441 73.0062 51.3148 73.0062 52.1152C73.0062 57.9552 73.0062 63.7951 73.0062 69.635C73.0062 69.9907 72.8268 70.1686 72.498 70.1686C71.1229 70.1686 69.7478 70.1686 68.4026 70.1686C68.2232 70.139 68.0139 70.139 67.8047 70.139Z" fill="black"/>
<path d="M70.4364 45.8604C68.7025 45.8308 67.2975 44.8229 67.3573 42.7774C67.4171 40.5837 69.5396 39.4573 71.7218 40.2576C73.0072 40.732 73.6649 41.8288 73.5154 43.1924C73.366 44.6154 72.4691 45.564 71.1239 45.7715C70.8549 45.8308 70.5559 45.8308 70.4364 45.8604Z" fill="black"/>
<path d="M149.417 67.7971C149.387 68.7753 149.118 69.6647 148.191 70.1686C147.175 70.7022 146.159 70.7022 145.172 70.1686C144.395 69.7536 144.066 68.9829 144.006 68.1232C143.946 67.3228 144.066 66.5817 144.574 65.8998C145.292 64.9512 146.786 64.8623 147.683 65.1291C148.729 65.4552 149.357 66.3149 149.417 67.471C149.417 67.5599 149.417 67.6785 149.417 67.7971Z" fill="black"/>
<path d="M159.998 67.7677C160.028 68.8645 159.669 69.7538 158.653 70.2578C157.607 70.7617 156.56 70.7024 155.574 70.0503C155.365 69.902 155.185 69.6945 155.036 69.487C154.438 68.4791 154.408 67.4119 154.886 66.3744C155.424 65.2479 156.68 64.8032 158.055 65.0997C159.221 65.3665 159.938 66.2261 159.998 67.5009C159.998 67.5601 159.998 67.6787 159.998 67.7677Z" fill="black"/>
<path d="M138.654 67.7378C138.654 69.2497 137.906 70.2576 136.531 70.4651C134.857 70.7319 133.362 69.9908 133.243 68.0639C133.183 67.2339 133.332 66.4927 133.871 65.8109C134.558 64.9216 136.172 64.803 137.069 65.1588C138.115 65.5738 138.683 66.4631 138.654 67.7378Z" fill="black"/>
<path d="M50.9748 65.8109C47.5371 65.8109 44.9961 63.2319 44.9961 59.7635C44.9961 56.2358 47.7164 53.7457 51.1841 53.805C54.5322 53.8643 57.1928 56.4137 57.1928 59.7042C57.1928 63.2319 54.5621 65.8109 50.9748 65.8109Z" fill="white"/>
<path d="M124.425 57.6292C124.245 57.6292 124.096 57.6292 123.946 57.6292C120.389 57.6292 116.832 57.6292 113.274 57.6292C112.975 57.6292 112.886 57.5403 112.916 57.2438C112.945 56.5027 113.334 55.9395 113.783 55.4059C115.158 53.7162 117.071 53.3012 119.134 53.3308C120.927 53.3604 122.392 54.0423 123.528 55.4652C124.006 56.0877 124.275 56.7992 124.425 57.6292Z" fill="white"/>
</svg>
