<svg width="200" height="110" viewBox="0 0 200 110" fill="none" xmlns="http://www.w3.org/2000/svg">
<rect width="200" height="110" fill="white"/>
<path d="M43.0376 69.3654C42.9299 69.2847 42.7953 69.2308 42.6338 69.2039L43.0107 66.0811L46.0527 64.4658C46.1335 64.5735 46.2142 64.6812 46.3219 64.762L43.0376 69.3681V69.3654ZM42.3646 69.177C41.9069 69.177 41.5031 69.4193 41.2608 69.7692L39.5648 68.8539L40.4801 67.804C40.6147 67.9117 40.8032 67.9655 40.9916 67.9655C41.5031 67.9655 41.9069 67.5617 41.9069 67.0502C41.9069 66.9425 41.88 66.8349 41.8531 66.7272L42.7953 66.2426L42.4184 69.2039C42.4005 69.1859 42.3825 69.177 42.3646 69.177ZM39.3764 68.7462L36.8458 67.3733C36.8996 67.2387 36.9535 67.1041 36.9535 66.9695L40.1032 67.1041C40.1301 67.3194 40.2109 67.481 40.3455 67.6425L39.3764 68.7462ZM38.2188 70.0923C38.0842 69.9846 37.8957 69.9308 37.7073 69.9308C37.2765 69.9308 36.8996 70.2538 36.8189 70.6576L33.4269 70.3884C33.3999 70.2807 33.373 70.2 33.2923 70.1192L34.7998 68.1001C34.9883 68.2078 35.2305 68.2617 35.4728 68.2617C35.9843 68.2617 36.4689 67.9925 36.7112 67.5886L39.2148 68.9347L38.2188 70.0923ZM33.1011 69.9846C33.0204 69.9577 32.9665 69.9308 32.8857 69.9308C32.7242 69.9308 32.5896 70.0115 32.4819 70.1192L29.5745 68.4501C29.6822 68.2617 29.736 68.0194 29.736 67.7771V67.7232L34.046 67.2118C34.1537 67.5348 34.3422 67.804 34.6114 67.9925L33.1038 69.9846H33.1011ZM27.0682 66.7003L25.2645 65.1927C25.3991 64.9773 25.5068 64.735 25.5068 64.4658C25.5068 64.062 25.3183 63.7121 25.0491 63.4698L26.0721 62.016C26.2336 62.0968 26.4221 62.1776 26.6374 62.1776C26.7451 62.1776 26.8797 62.1506 26.9874 62.1237L27.795 66.2991C27.4989 66.3799 27.2566 66.5145 27.0682 66.703M24.1876 63.1763C23.9992 63.1763 23.8377 63.2032 23.6761 63.284L21.9263 60.0266C22.1147 59.892 22.2224 59.6766 22.2224 59.4343C22.2224 59.2459 22.1417 59.0844 22.034 58.9498L23.03 57.7922L25.6683 60.3496C25.5068 60.5381 25.426 60.7804 25.426 61.0496C25.426 61.3996 25.5875 61.6957 25.8298 61.9111L24.8068 63.3648C24.6453 63.2302 24.4299 63.1763 24.1876 63.1763ZM21.2533 55.6897C21.4417 55.4743 21.5494 55.1782 21.5494 54.882C21.5494 54.559 21.4417 54.2898 21.2533 54.0744L23.057 52.3246L24.08 53.5091C23.7031 53.8321 23.4608 54.3436 23.4608 54.882C23.4608 55.4204 23.7031 55.9319 24.08 56.255L23.057 57.4395L21.2533 55.6897ZM22.0609 50.8143C22.1686 50.6797 22.2493 50.5182 22.2493 50.3297C22.2493 50.0874 22.1417 49.8721 21.9532 49.7375L23.7031 46.4801C23.8646 46.5339 24.0261 46.5877 24.2146 46.5877C24.4568 46.5877 24.6722 46.507 24.8607 46.3993L25.8836 47.853C25.6414 48.0684 25.4798 48.3645 25.4798 48.7145C25.4798 48.9837 25.5875 49.226 25.7221 49.4144L23.0839 51.9719L22.0609 50.8143ZM25.4798 45.2928C25.4798 45.0236 25.3991 44.7813 25.2645 44.566L27.0412 43.1392C27.2297 43.3545 27.472 43.4892 27.7681 43.5699L26.9605 47.6107C26.8528 47.5838 26.7451 47.5569 26.6105 47.5569C26.3951 47.5569 26.2336 47.6107 26.0452 47.7184L25.0222 46.2647C25.3183 46.0224 25.4798 45.6724 25.4798 45.2955M32.4819 39.7472C32.5896 39.8548 32.7242 39.9356 32.8857 39.9356C32.9665 39.9356 33.0473 39.9087 33.1011 39.8818L34.6087 41.8739C34.3395 42.0623 34.151 42.3316 34.0433 42.6546L29.7333 42.1431V42.0893C29.7333 41.847 29.6795 41.6316 29.5718 41.4162L32.4792 39.7472H32.4819ZM33.4242 39.451L36.8162 39.1818C36.8969 39.5856 37.2738 39.9087 37.7046 39.9087C37.893 39.9087 38.0545 39.8548 38.2161 39.7472L39.2121 40.9048L36.7085 42.2508C36.4393 41.847 35.9816 41.5778 35.4701 41.5778C35.2279 41.5778 35.0125 41.6316 34.7971 41.7393L33.2896 39.7202C33.3434 39.6664 33.3972 39.5587 33.4242 39.451ZM40.2917 42.2239C40.1571 42.3585 40.0763 42.5469 40.0494 42.7623L36.8996 42.8969C36.8727 42.7623 36.8458 42.6008 36.792 42.4931L39.3225 41.1201L40.2917 42.2239ZM41.2608 40.0971C41.5031 40.4471 41.9069 40.6894 42.3646 40.6894H42.4184L42.7953 43.6507L41.8531 43.1661C41.88 43.0584 41.9069 42.9507 41.9069 42.8431C41.9069 42.3316 41.5031 41.9277 40.9916 41.9277C40.8032 41.9277 40.6416 41.9816 40.4801 42.0893L39.5648 41.0394L41.2608 40.0971ZM43.0376 40.5009L46.3488 45.0802C46.2412 45.1609 46.1604 45.2686 46.0796 45.3763L43.0376 43.7611L42.6607 40.6382C42.7953 40.6382 42.903 40.5844 43.0376 40.5036M47.2668 65.1173C48.0475 65.1173 48.6667 64.4981 48.6667 63.7174C48.6667 62.9367 48.0475 62.3176 47.2668 62.3176C46.4861 62.3176 45.867 62.9367 45.867 63.7174C45.867 63.9059 45.8939 64.0943 45.9746 64.2559L43.0672 65.7903L43.2018 64.7943C43.471 64.7673 43.6864 64.5251 43.6864 64.2559C43.6864 63.9597 43.4441 63.7174 43.148 63.7174C42.8518 63.7174 42.6095 63.9597 42.6095 64.2559C42.6095 64.4981 42.7711 64.6866 42.9864 64.7673L42.8518 65.9249L41.775 66.4903C41.6135 66.248 41.3443 66.1134 41.0212 66.1134C40.5636 66.1134 40.1867 66.4364 40.1059 66.8672L36.9831 66.7326C36.9562 65.9249 36.3101 65.3058 35.5024 65.3058C34.9371 65.3058 34.4525 65.6288 34.1833 66.0865L30.6029 64.4981C30.6298 64.4443 30.6298 64.3905 30.6298 64.3097C30.6298 63.9059 30.3067 63.5828 29.9029 63.5828C29.4991 63.5828 29.1761 63.9059 29.1761 64.3097C29.1761 64.7135 29.4991 65.0366 29.9029 65.0366C30.1452 65.0366 30.3875 64.9019 30.4952 64.7135L34.0756 66.3018C34.0218 66.4634 33.9949 66.6249 33.9949 66.7864C33.9949 66.8672 33.9949 66.921 34.0218 66.9749L29.7387 67.4863C29.6041 66.7595 28.958 66.2211 28.2042 66.2211H28.0158L27.1812 61.9918C27.5312 61.8034 27.7735 61.4265 27.7735 60.9957C27.7735 60.3766 27.262 59.8651 26.6428 59.8651C26.3736 59.8651 26.1044 59.9728 25.916 60.1343L23.2777 57.5499L24.3276 56.3384C24.6238 56.5269 24.9468 56.6346 25.3237 56.6346C26.3198 56.6346 27.1274 55.8269 27.1274 54.8309C27.1274 53.8348 26.3198 53.0272 25.3237 53.0272C24.9468 53.0272 24.6238 53.1349 24.3276 53.3233L23.2777 52.1119L25.916 49.5275C26.1044 49.689 26.3736 49.7967 26.6428 49.7967C27.262 49.7967 27.7735 49.2852 27.7735 48.666C27.7735 48.2353 27.5312 47.8853 27.2082 47.6699L28.0158 43.5753H28.2042C28.958 43.5753 29.6041 43.0369 29.7387 42.31L34.0218 42.8215C34.0218 42.8754 33.9949 42.9561 33.9949 43.01C33.9949 43.1715 34.0218 43.3599 34.0756 43.4945L30.4952 45.0829C30.3606 44.8944 30.1452 44.7598 29.9029 44.7598C29.4991 44.7598 29.1761 45.0829 29.1761 45.4867C29.1761 45.8905 29.4991 46.2135 29.9029 46.2135C30.3067 46.2135 30.6298 45.8905 30.6298 45.4867C30.6298 45.4328 30.6298 45.3521 30.6029 45.2982L34.1833 43.7099C34.4256 44.1676 34.9371 44.4906 35.5024 44.4906C36.3101 44.4906 36.9562 43.8445 36.9831 43.0638L40.1059 42.9292C40.1867 43.3599 40.5636 43.683 41.0212 43.683C41.3443 43.683 41.6135 43.5215 41.775 43.3061L42.8518 43.8714L42.9864 45.029C42.7711 45.1098 42.6095 45.2982 42.6095 45.5405C42.6095 45.8366 42.8518 46.0789 43.148 46.0789C43.4441 46.0789 43.6864 45.8366 43.6864 45.5405C43.6864 45.2444 43.471 45.029 43.2018 45.0021L43.0672 44.006L45.9746 45.5405C45.8939 45.702 45.867 45.8905 45.867 46.0789C45.867 46.8596 46.4861 47.4788 47.2668 47.4788C48.0475 47.4788 48.6667 46.8596 48.6667 46.0789C48.6667 45.2982 48.0475 44.679 47.2668 44.679C46.9976 44.679 46.7553 44.7598 46.54 44.8944L43.2287 40.3152C43.3095 40.2344 43.3902 40.1537 43.4441 40.0729L46.2169 41.6343C46.1631 41.7689 46.1362 41.9035 46.1362 42.065C46.1362 42.6573 46.6207 43.1688 47.2399 43.1688C47.8591 43.1688 48.3437 42.6842 48.3437 42.065C48.3437 41.4459 47.8591 40.9613 47.2399 40.9613C46.863 40.9613 46.54 41.1497 46.3515 41.4189L43.5787 39.8575C43.6594 39.696 43.6864 39.5076 43.6864 39.3191C43.6864 38.5923 43.0941 38 42.3673 38C41.6404 38 41.0481 38.5923 41.0481 39.3191C41.0481 39.5076 41.0751 39.6691 41.1558 39.8306L39.4329 40.7728L38.4099 39.5614C38.5445 39.3999 38.6522 39.1845 38.6522 38.9422C38.6522 38.4307 38.2484 38.0269 37.7369 38.0269C37.2523 38.0269 36.8485 38.4038 36.8216 38.8884L33.4295 39.1576C33.3488 38.9422 33.1603 38.7807 32.9181 38.7807C32.6219 38.7807 32.3796 39.023 32.3796 39.3191C32.3796 39.373 32.3796 39.4268 32.4066 39.4806L29.4991 41.1497C29.2299 40.7459 28.7453 40.4767 28.2069 40.4767C27.3454 40.4767 26.6455 41.1767 26.6455 42.0381C26.6455 42.3612 26.7532 42.6573 26.9147 42.9265L25.1379 44.3533C24.8957 44.111 24.5726 43.9495 24.1957 43.9495C23.4689 43.9495 22.9035 44.5418 22.9035 45.2417C22.9035 45.6993 23.1458 46.1032 23.4958 46.3185L21.7459 49.5759C21.6652 49.549 21.5844 49.5221 21.5036 49.5221C21.0998 49.5221 20.7499 49.8451 20.7499 50.2759C20.7499 50.6797 21.0729 51.0297 21.5036 51.0297C21.6382 51.0297 21.7728 50.9758 21.9074 50.922L22.9304 52.0796L21.1267 53.8294C20.9114 53.641 20.6152 53.5064 20.2922 53.5064C19.5653 53.5064 19 54.0986 19 54.7986C19 55.4985 19.5923 56.0908 20.2922 56.0908C20.6152 56.0908 20.9114 55.9562 21.1267 55.7677L22.9304 57.5176L21.9074 58.6752C21.7998 58.5944 21.6652 58.5675 21.5036 58.5675C21.0998 58.5675 20.7499 58.8905 20.7499 59.3213C20.7499 59.752 21.0729 60.0751 21.5036 60.0751C21.5844 60.0751 21.6652 60.0481 21.7459 60.0212L23.4958 63.2786C23.1458 63.5209 22.9035 63.8978 22.9035 64.3555C22.9035 65.0823 23.4958 65.6477 24.1957 65.6477C24.5457 65.6477 24.8687 65.5131 25.111 65.2708L26.9147 66.7783C26.7263 67.0206 26.6186 67.3437 26.6186 67.6936C26.6186 68.5551 27.3185 69.255 28.18 69.255C28.7184 69.255 29.1761 68.9858 29.4722 68.582L32.3796 70.2511C32.3527 70.305 32.3527 70.3588 32.3527 70.4126C32.3527 70.7088 32.595 70.9511 32.8911 70.9511C33.1334 70.9511 33.3488 70.7895 33.4026 70.5742L36.7946 70.8434C36.8216 71.3279 37.2254 71.7048 37.71 71.7048C38.2214 71.7048 38.6253 71.301 38.6253 70.7895C38.6253 70.5472 38.5445 70.3319 38.383 70.1703L39.406 68.9589L41.1289 69.9011C41.0751 70.0627 41.0212 70.2242 41.0212 70.4126C41.0212 71.1395 41.6135 71.7318 42.3403 71.7318C43.0672 71.7318 43.6595 71.1395 43.6595 70.4126C43.6595 70.2242 43.6056 70.0357 43.5518 69.8742L46.3246 68.3128C46.5131 68.582 46.8361 68.7705 47.213 68.7705C47.8053 68.7705 48.3167 68.2859 48.3167 67.6667C48.3167 67.0475 47.8322 66.563 47.213 66.563C46.5938 66.563 46.1092 67.0475 46.1092 67.6667C46.1092 67.8282 46.1362 67.9628 46.19 68.0974L43.4172 69.6589C43.3633 69.5781 43.2826 69.4973 43.2018 69.4166L46.5131 64.8373C46.7553 65.0527 46.9976 65.1065 47.2668 65.1065" fill="#333132"/>
<path d="M65.1183 57.3534C65.1183 59.6955 63.5838 61.448 61.1609 61.448C58.738 61.448 57.2305 59.6982 57.2305 57.3264V52.5318C57.2305 50.1628 58.7111 48.4372 61.134 48.4372C63.5569 48.4372 65.0375 50.0794 65.0375 52.3407V52.3946H63.7722V52.3407C63.7722 50.7255 62.7492 49.6217 61.1071 49.6217C59.4649 49.6217 58.4688 50.8062 58.4688 52.5561V57.3237C58.4688 59.0467 59.4649 60.2581 61.134 60.2581C62.8031 60.2581 63.8261 59.0736 63.8261 57.3776V57.1891H65.0913V57.3507H65.1183V57.3534ZM73.8971 48.6822V54.1767H68.6449V48.6822H67.3796V61.1788H68.6449V55.3612H73.8971V61.1788H75.1624V48.6822H73.8971ZM84.6951 49.8936V48.7091H78.0968V61.2057H84.722V60.0212H79.3351V55.3881H83.6182V54.2036H79.3351V49.8936H84.6951ZM93.6355 49.8936V48.7091H87.0103V61.2057H93.6355V60.0212H88.2755V55.3881H92.5586V54.2036H88.2755V49.8936H93.6355ZM102.737 48.6822H94.8738V49.8667H98.1851V61.1761H99.4504V49.8667H102.735V48.6822H102.737ZM105.079 56.7342L106.937 50.5666L108.795 56.7342H105.079ZM110.143 61.1788H111.462L107.559 48.6822H106.294L102.39 61.1788H103.736L104.705 57.9214H109.123L110.146 61.1788H110.143ZM119.703 48.6822V54.1767H114.451V48.6822H113.185V61.1788H114.451V55.3612H119.703V61.1788H120.968V48.6822H119.703ZM129.397 49.8936H131.685C133.516 49.8936 134.593 50.9166 134.593 52.6395V57.2726C134.593 58.9686 133.516 60.0185 131.685 60.0185H129.397V49.8936ZM128.159 48.6822V61.1788H131.712C134.297 61.1788 135.888 59.6443 135.888 57.2484V52.5884C135.888 50.1924 134.326 48.6849 131.712 48.6849H128.159V48.6822ZM138.499 61.2057H139.764V48.7091H138.499V61.2057ZM146.336 54.8228V56.0073H149.162V57.3534C149.162 59.184 148.059 60.2339 146.389 60.2339C144.72 60.2339 143.644 59.0763 143.644 57.2995V52.5588C143.644 50.8089 144.667 49.6244 146.389 49.6244C148.005 49.6244 149.001 50.7551 149.001 52.3434V52.3972H150.266V52.3434C150.266 50.0821 148.785 48.4399 146.416 48.4399C144.047 48.4399 142.405 50.1628 142.405 52.5615V57.4368C142.405 59.752 143.913 61.448 146.255 61.448C147.682 61.448 148.732 60.8558 149.324 59.8866V61.1788H150.401V54.8228H146.333H146.336ZM152.961 61.2057H154.226V48.7091H152.961V61.2057ZM163.92 48.6822H156.084V49.8667H159.395V61.1761H160.66V49.8667H163.945V48.6822H163.918H163.92ZM166.262 56.7342L168.12 50.5666L169.977 56.7342H166.262ZM171.326 61.1788H172.645L168.742 48.6822H167.477L163.573 61.1788H164.919L165.888 57.9214H170.306L171.329 61.1788H171.326ZM175.636 48.6822H174.371V61.1788H180.512V59.9943H175.609V48.6849H175.636V48.6822Z" fill="#333132"/>
</svg>
