<svg width="200" height="110" viewBox="0 0 200 110" fill="none" xmlns="http://www.w3.org/2000/svg">
<rect width="200" height="110" fill="white"/>
<mask id="mask0_633_26746" style="mask-type:luminance" maskUnits="userSpaceOnUse" x="33" y="41" width="134" height="29">
<path d="M33 41H167V69.4574H33V41Z" fill="white"/>
</mask>
<g mask="url(#mask0_633_26746)">
<path fill-rule="evenodd" clip-rule="evenodd" d="M69.7764 44.4069C70.5804 45.2123 70.5804 46.5161 69.7764 47.3206L48.3694 68.7378C48.0295 69.0781 47.5689 69.2692 47.0887 69.2692C46.6085 69.2692 46.1479 69.0781 45.8079 68.7378L33.7242 56.6489C33.5331 56.4578 33.3814 56.2308 33.2779 55.9808C33.1744 55.7308 33.1211 55.4627 33.1211 55.192C33.1211 54.9213 33.1744 54.6533 33.2779 54.4033C33.3814 54.1533 33.5331 53.9262 33.7242 53.7352L36.3434 51.1152C36.7302 50.7289 37.2537 50.5121 37.7994 50.5121C38.3451 50.5121 38.8686 50.7289 39.2553 51.1152L47.0943 58.9577L64.2515 41.7941C64.6381 41.4076 65.1616 41.1906 65.7075 41.1906C66.2533 41.1906 66.7768 41.4076 67.1634 41.7941L69.7764 44.4069Z" fill="#282850"/>
<path fill-rule="evenodd" clip-rule="evenodd" d="M80.6983 44.4606C81.5023 45.265 81.5023 46.5699 80.6983 47.3743L59.2913 68.7915C58.9513 69.1321 58.4905 69.3234 58.01 69.3234C57.5296 69.3234 57.0687 69.1321 56.7288 68.7915L44.6461 56.7026C44.4549 56.5115 44.3032 56.2845 44.1997 56.0345C44.0962 55.7845 44.043 55.5165 44.043 55.2458C44.043 54.9751 44.0962 54.707 44.1997 54.457C44.3032 54.207 44.4549 53.98 44.6461 53.7889L47.2643 51.1679C47.651 50.7813 48.1748 50.5643 48.7207 50.5643C49.2667 50.5643 49.7904 50.7813 50.1772 51.1679L58.0162 59.0104L75.1723 41.8478C75.559 41.461 76.0828 41.2438 76.6288 41.2438C77.1749 41.2438 77.6986 41.461 78.0853 41.8478L80.6983 44.4617V44.4606Z" fill="#E41D78"/>
<path d="M101.845 60.9801V65.8242H89.125V44.652H94.0212V60.9801H101.845ZM113.889 61.9448C114.546 61.9448 115.13 61.8372 115.642 61.6243C116.147 61.4137 116.598 61.0909 116.961 60.6803C117.318 60.2729 117.589 59.7797 117.772 59.1976C117.965 58.6072 118.061 57.9382 118.061 57.1917V44.653H122.957V57.1938C122.957 58.4914 122.746 59.6835 122.321 60.7681C121.927 61.8203 121.315 62.7764 120.524 63.5732C119.741 64.358 118.791 64.968 117.67 65.4033C116.55 65.8397 115.289 66.0578 113.889 66.0578C112.479 66.0578 111.214 65.8407 110.094 65.4033C108.973 64.968 108.022 64.358 107.24 63.5732C106.45 62.7763 105.838 61.8202 105.444 60.7681C105.029 59.6825 104.821 58.4914 104.821 57.1938V44.652H109.717V57.1783C109.717 57.9237 109.809 58.5927 109.992 59.1841C110.186 59.7642 110.461 60.2636 110.819 60.6803C111.178 61.0881 111.623 61.4106 112.121 61.6243C112.643 61.8383 113.233 61.9448 113.889 61.9448ZM142.167 60.3453C142.284 60.3453 142.399 60.3701 142.515 60.4176C142.642 60.4634 142.756 60.5385 142.849 60.6368L144.79 62.6851C143.954 63.7876 142.852 64.6581 141.588 65.2141C140.313 65.7756 138.802 66.0568 137.054 66.0568C135.451 66.0568 134.012 65.7849 132.737 65.2431C131.472 64.6909 130.395 63.9351 129.506 62.9756C128.627 62.0068 127.952 60.8643 127.478 59.547C127.005 58.2194 126.769 56.7812 126.769 55.2313C126.769 53.6515 127.024 52.2039 127.537 50.8856C128.048 49.5591 128.767 48.4155 129.695 47.4571C130.638 46.4869 131.772 45.7245 133.025 45.2186C134.32 44.6861 135.745 44.4193 137.299 44.4193C138.091 44.4193 138.835 44.4917 139.53 44.6375C140.204 44.7641 140.865 44.9588 141.5 45.2186C142.644 45.6712 143.68 46.3595 144.542 47.2389L142.891 49.4619C142.78 49.6023 142.654 49.7293 142.514 49.8403C142.369 49.9468 142.166 49.9995 141.906 49.9995C141.732 49.9995 141.567 49.9613 141.413 49.8837C141.245 49.7989 141.081 49.7068 140.921 49.6077C140.747 49.4908 140.554 49.3699 140.341 49.2437C140.11 49.094 139.862 48.9722 139.603 48.8808C139.28 48.7519 138.945 48.6546 138.603 48.5903C138.164 48.5069 137.717 48.4678 137.27 48.4734C136.459 48.4734 135.715 48.6244 135.04 48.9242C134.368 49.2282 133.774 49.6802 133.301 50.2467C132.818 50.8184 132.441 51.5257 132.171 52.3683C131.91 53.2017 131.779 54.156 131.779 55.2313C131.779 56.3159 131.925 57.2796 132.214 58.1223C132.513 58.966 132.915 59.6773 133.416 60.2584C133.911 60.8171 134.519 61.2631 135.199 61.5663C135.875 61.8662 136.599 62.0172 137.371 62.0172C137.815 62.0172 138.222 61.9975 138.589 61.9592C138.955 61.9107 139.298 61.8383 139.617 61.7411C139.936 61.6346 140.235 61.4991 140.515 61.3337C140.795 61.16 141.08 60.9408 141.37 60.6803C141.486 60.5831 141.611 60.5055 141.747 60.4476C141.877 60.3812 142.02 60.3465 142.166 60.3463L142.167 60.3453ZM159.24 57.7294L157.285 51.932C157.14 51.5639 156.986 51.1328 156.821 50.6396C156.646 50.1001 156.482 49.5571 156.329 49.0111C156.085 50.0139 155.775 50.9994 155.401 51.9609L153.46 57.7304L159.24 57.7294ZM167.019 65.8242H163.224C162.799 65.8242 162.456 65.727 162.195 65.5336C161.935 65.3315 161.731 65.0664 161.601 64.7633L160.356 61.0721H152.331L151.085 64.7633C150.978 65.0342 150.785 65.2813 150.505 65.5047C150.234 65.7177 149.896 65.8242 149.491 65.8242H145.667L153.837 44.652H158.849L167.019 65.8242Z" fill="#282850"/>
</g>
</svg>
