<svg width="200" height="110" viewBox="0 0 200 110" fill="none" xmlns="http://www.w3.org/2000/svg">
<rect width="200" height="110" fill="white"/>
<path d="M70.5473 62.2581V57.399C70.5473 55.9401 71.4674 54.9618 72.8221 54.9618C74.1288 54.9618 74.9837 55.9401 74.9837 57.399V62.2572H76.2098V57.399C76.2098 55.9725 77.1461 54.9618 78.5008 54.9618C79.7596 54.9618 80.6624 55.9716 80.6624 57.399V62.2572H81.9048V57.4152C81.9048 55.3308 80.5492 53.8557 78.6457 53.8557C77.3553 53.8557 76.3393 54.5127 75.8231 55.5387C75.3703 54.5127 74.2746 53.8395 72.9344 53.8395C71.8867 53.8395 71.0318 54.3363 70.5156 55.1706V54.1608H69.3203V62.2572H70.5464L70.5473 62.2581ZM87.9983 53.8404C85.4492 53.8404 83.6589 55.6521 83.6589 58.218C83.6589 60.7668 85.4492 62.5785 87.9983 62.5785C90.5474 62.5785 92.354 60.7668 92.354 58.218C92.354 55.653 90.5474 53.8404 87.9983 53.8404ZM87.9983 61.4724C86.1917 61.4724 84.885 60.0936 84.885 58.218C84.885 56.3253 86.1917 54.9627 87.9983 54.9627C89.8049 54.9627 91.1116 56.3253 91.1116 58.218C91.1116 60.0936 89.8049 61.4724 87.9983 61.4724ZM98.5752 55.0266C100.383 55.0266 101.689 56.3739 101.689 58.218C101.689 60.0774 100.367 61.3923 98.5761 61.3923C96.7686 61.3923 95.4619 60.0459 95.4619 58.218C95.4619 56.373 96.7677 55.0266 98.5752 55.0266ZM102.916 58.218C102.916 55.6845 101.157 53.8404 98.721 53.8404C97.3337 53.8404 96.1881 54.4821 95.4945 55.5234V50.4744H94.2684V62.2581H95.4619V60.8631C96.1555 61.9215 97.3183 62.5785 98.721 62.5785C101.141 62.5785 102.916 60.7344 102.916 58.218ZM105.045 54.1608V62.2581H106.271V54.1608H105.045ZM105.658 52.6704C105.77 52.6738 105.88 52.6545 105.984 52.6138C106.087 52.573 106.181 52.5117 106.259 52.4335C106.338 52.3553 106.399 52.262 106.44 52.1593C106.481 52.0565 106.501 51.9465 106.497 51.8361C106.497 51.3555 106.142 51.0189 105.658 51.0189C105.158 51.0189 104.819 51.3555 104.819 51.8361C104.819 52.3176 105.158 52.6704 105.658 52.6704ZM108.833 50.4744V62.2581H110.075V50.4735L108.833 50.4744ZM113.292 57.5439C113.518 56.0211 114.696 54.9627 116.276 54.9627C117.89 54.9627 119.083 56.0211 119.31 57.5601L113.292 57.5439ZM112.002 58.1217C112.002 60.7029 113.825 62.5785 116.341 62.5785C118.148 62.5785 119.826 61.4247 120.326 59.8371L119.116 59.6445C118.745 60.7029 117.551 61.4724 116.292 61.4724C114.68 61.4724 113.453 60.3024 113.26 58.6023L120.584 58.6185C120.6 58.4421 120.6 58.2819 120.6 58.137C120.6 55.653 118.809 53.8404 116.325 53.8404C113.808 53.8404 112.002 55.6521 112.002 58.1217ZM124.645 62.2581L126.355 59.388L128.066 62.2581H131.018L128.178 57.993L130.873 54.0492H128L126.355 56.6628L124.71 54.0492H121.838L124.532 57.993L121.709 62.2581H124.645ZM136.822 60.414C135.564 60.414 134.661 59.4519 134.661 58.1532C134.661 56.8545 135.564 55.8933 136.822 55.8933C138.065 55.8933 138.984 56.8383 138.984 58.1532C138.984 59.4519 138.081 60.414 136.822 60.414ZM141.404 58.1532C141.404 55.5558 139.774 53.7288 137.484 53.7288C136.954 53.7229 136.429 53.8383 135.95 54.0661C135.472 54.294 135.053 54.6282 134.725 55.0428V54.0492H132.338V65.9454H134.758V61.2636C135.419 62.0979 136.355 62.5785 137.484 62.5785C139.791 62.5785 141.404 60.7515 141.404 58.1532ZM145.081 57.3837C145.291 56.2938 146.033 55.572 147.098 55.572C148.195 55.572 149.001 56.3415 149.147 57.3837H145.081ZM142.597 58.0893C142.597 60.7353 144.468 62.5785 147.13 62.5785C149.147 62.5785 150.889 61.4085 151.292 59.8047L149.114 59.5005C148.856 60.2214 148.098 60.7344 147.194 60.7344C146.098 60.7344 145.307 59.9811 145.097 58.8264L151.566 58.8426C151.598 58.6662 151.598 58.3296 151.598 58.1217C151.598 55.5243 149.792 53.7279 147.146 53.7279C144.484 53.7279 142.597 55.5243 142.597 58.0893ZM153.157 54.0483V62.2581H155.577V57.6411C155.577 56.598 156.351 55.8447 157.303 55.8447C158.255 55.8447 158.835 56.5503 158.835 57.5439V62.2581H161.255V57.1281C161.255 55.1553 159.997 53.7288 158.142 53.7288C157.618 53.7292 157.103 53.8599 156.644 54.1091C156.185 54.3583 155.795 54.718 155.512 55.1553V54.0483H153.157ZM170.468 59.6607C170.468 57.7365 168.355 57.3999 166.677 57.1758C165.741 57.0318 165.015 56.8707 165.015 56.3253C165.031 55.7808 165.628 55.3956 166.371 55.3956C167.339 55.3956 168.064 55.8609 168.064 56.5341H170.194C170.194 54.8826 168.596 53.6964 166.387 53.6964C164.37 53.6964 162.837 54.8511 162.837 56.454C162.837 58.4583 164.37 58.7463 166.209 58.9713C167.209 59.0676 168.144 59.2593 168.144 59.9496C168.144 60.4941 167.5 60.9117 166.612 60.9117C165.564 60.9117 164.806 60.3339 164.806 59.5167H162.756C162.741 61.3122 164.354 62.6109 166.58 62.6109C168.887 62.6109 170.468 61.3761 170.468 59.6607ZM174.137 57.3837C174.346 56.2938 175.088 55.572 176.152 55.572C177.25 55.572 178.057 56.3415 178.202 57.3837H174.137ZM171.652 58.0893C171.652 60.7353 173.523 62.5785 176.185 62.5785C178.202 62.5785 179.944 61.4085 180.347 59.8047L178.169 59.5005C177.911 60.2214 177.153 60.7344 176.249 60.7344C175.153 60.7344 174.362 59.9811 174.152 58.8264L180.621 58.8426C180.654 58.6662 180.654 58.3296 180.654 58.1217C180.654 55.5243 178.846 53.7279 176.201 53.7279C173.539 53.7279 171.652 55.5243 171.652 58.0893Z" fill="#004656"/>
<path d="M52.7074 66.5781C56.5615 66.5781 60.9978 48.7095 60.9978 48.7095L38.1868 42C38.1868 42 33.3874 66.5781 25.8984 66.5781H52.7074Z" fill="#00C6F1"/>
<path d="M51.2044 64.8762C50.0652 64.8762 43.835 64.2444 42.6714 62.1537C40.0054 57.3405 44.199 50.1927 44.199 50.1927L36.5145 48.8805H19.9591C19.9591 48.8805 15.4748 65.0958 25.8987 66.5781C36.3461 68.0613 55.5918 68.0613 60.3677 66.5781C54.0415 65.9463 51.2053 64.8771 51.2053 64.8771L51.2044 64.8762Z" fill="#FF6500"/>
<path d="M60.3675 66.579C56.9255 66.1164 45.4113 64.221 45.1687 48.8805H36.5387C34.5275 56.1489 30.7939 66.5781 25.8984 66.5781C36.3214 68.0613 55.5916 68.0622 60.3675 66.579Z" fill="#004656"/>
</svg>
